<?xml version="1.0" encoding="utf-8" standalone="no"?>
<!DOCTYPE svg PUBLIC "-//W3C//DTD SVG 1.1//EN"
  "http://www.w3.org/Graphics/SVG/1.1/DTD/svg11.dtd">
<!-- Created with matplotlib (https://matplotlib.org/) -->
<svg height="720pt" version="1.1" viewBox="0 0 2160 720" width="2160pt" xmlns="http://www.w3.org/2000/svg" xmlns:xlink="http://www.w3.org/1999/xlink">
 <defs>
  <style type="text/css">
*{stroke-linecap:butt;stroke-linejoin:round;}
  </style>
 </defs>
 <g id="figure_1">
  <g id="patch_1">
   <path d="M 0 720 
L 2160 720 
L 2160 0 
L 0 0 
z
" style="fill:#ffffff;"/>
  </g>
  <g id="axes_1">
   <g id="patch_2">
    <path d="M 270 630 
L 1944 630 
L 1944 86.4 
L 270 86.4 
z
" style="fill:#ffffff;"/>
   </g>
   <g id="patch_3">
    <path clip-path="url(#pcd7c2ee443)" d="M 327.845785 630 
L 327.845785 627.676724 
L 333.642675 627.676724 
L 333.642675 623.030173 
L 339.439566 623.030173 
L 339.439566 614.732759 
L 345.236456 614.732759 
L 345.236456 589.508623 
L 351.033346 589.508623 
L 351.033346 562.293107 
L 356.830236 562.293107 
L 356.830236 516.823282 
L 362.627126 516.823282 
L 362.627126 479.65087 
L 368.424017 479.65087 
L 368.424017 446.12932 
L 374.220907 446.12932 
L 374.220907 427.87501 
L 380.017797 427.87501 
L 380.017797 382.405185 
L 385.814687 382.405185 
L 385.814687 337.267256 
L 391.611578 337.267256 
L 391.611578 339.922428 
L 397.408468 339.922428 
L 397.408468 307.064672 
L 403.205358 307.064672 
L 403.205358 274.870708 
L 409.002248 274.870708 
L 409.002248 248.650881 
L 414.799138 248.650881 
L 414.799138 252.965536 
L 420.596029 252.965536 
L 420.596029 256.948295 
L 426.392919 256.948295 
L 426.392919 285.491397 
L 432.189809 285.491397 
L 432.189809 296.443982 
L 437.986699 296.443982 
L 437.986699 330.961222 
L 443.783589 330.961222 
L 443.783589 326.978464 
L 449.58048 326.978464 
L 449.58048 334.94398 
L 455.37737 334.94398 
L 455.37737 392.362081 
L 461.17426 392.362081 
L 461.17426 392.030184 
L 466.97115 392.030184 
L 466.97115 410.61639 
L 472.76804 410.61639 
L 472.76804 432.853458 
L 478.564931 432.853458 
L 478.564931 440.155182 
L 484.361821 440.155182 
L 484.361821 455.090526 
L 490.158711 455.090526 
L 490.158711 488.943973 
L 495.955601 488.943973 
L 495.955601 479.318973 
L 501.752491 479.318973 
L 501.752491 509.189661 
L 507.549382 509.189661 
L 507.549382 515.827592 
L 513.346272 515.827592 
L 513.346272 522.797419 
L 519.143162 522.797419 
L 519.143162 533.418108 
L 524.940052 533.418108 
L 524.940052 541.051729 
L 530.736943 541.051729 
L 530.736943 555.655176 
L 536.533833 555.655176 
L 536.533833 555.655176 
L 542.330723 555.655176 
L 542.330723 562.293107 
L 548.127613 562.293107 
L 548.127613 560.965521 
L 553.924503 560.965521 
L 553.924503 569.926727 
L 559.721394 569.926727 
L 559.721394 571.918106 
L 565.518284 571.918106 
L 565.518284 569.594831 
L 571.315174 569.594831 
L 571.315174 590.836209 
L 577.112064 590.836209 
L 577.112064 587.84914 
L 582.908954 587.84914 
L 582.908954 596.146553 
L 588.705845 596.146553 
L 588.705845 590.504312 
L 594.502735 590.504312 
L 594.502735 595.48276 
L 600.299625 595.48276 
L 600.299625 600.793105 
L 606.096515 600.793105 
L 606.096515 599.133622 
L 611.893405 599.133622 
L 611.893405 602.120691 
L 617.690296 602.120691 
L 617.690296 602.452588 
L 623.487186 602.452588 
L 623.487186 600.793105 
L 629.284076 600.793105 
L 629.284076 608.426725 
L 635.080966 608.426725 
L 635.080966 612.74138 
L 640.877856 612.74138 
L 640.877856 608.094829 
L 646.674747 608.094829 
L 646.674747 609.754311 
L 652.471637 609.754311 
L 652.471637 608.094829 
L 658.268527 608.094829 
L 658.268527 609.090518 
L 664.065417 609.090518 
L 664.065417 611.745691 
L 669.862307 611.745691 
L 669.862307 617.056035 
L 675.659198 617.056035 
L 675.659198 617.719828 
L 681.456088 617.719828 
L 681.456088 618.715518 
L 687.252978 618.715518 
L 687.252978 619.379311 
L 693.049868 619.379311 
L 693.049868 619.379311 
L 698.846759 619.379311 
L 698.846759 620.706897 
L 704.643649 620.706897 
L 704.643649 617.719828 
L 710.440539 617.719828 
L 710.440539 619.047414 
L 716.237429 619.047414 
L 716.237429 618.715518 
L 722.034319 618.715518 
L 722.034319 621.702587 
L 727.83121 621.702587 
L 727.83121 620.043104 
L 733.6281 620.043104 
L 733.6281 620.375 
L 739.42499 620.375 
L 739.42499 623.030173 
L 745.22188 623.030173 
L 745.22188 626.681035 
L 751.01877 626.681035 
L 751.01877 626.017242 
L 756.815661 626.017242 
L 756.815661 623.693966 
L 762.612551 623.693966 
L 762.612551 625.353449 
L 768.409441 625.353449 
L 768.409441 622.36638 
L 774.206331 622.36638 
L 774.206331 624.689655 
L 780.003221 624.689655 
L 780.003221 625.685345 
L 785.800112 625.685345 
L 785.800112 625.353449 
L 791.597002 625.353449 
L 791.597002 626.017242 
L 797.393892 626.017242 
L 797.393892 625.685345 
L 803.190782 625.685345 
L 803.190782 627.012931 
L 808.987672 627.012931 
L 808.987672 627.676724 
L 814.784563 627.676724 
L 814.784563 626.681035 
L 820.581453 626.681035 
L 820.581453 627.012931 
L 826.378343 627.012931 
L 826.378343 628.340517 
L 832.175233 628.340517 
L 832.175233 626.681035 
L 837.972124 626.681035 
L 837.972124 627.012931 
L 843.769014 627.012931 
L 843.769014 626.681035 
L 849.565904 626.681035 
L 849.565904 627.676724 
L 855.362794 627.676724 
L 855.362794 627.676724 
L 861.159684 627.676724 
L 861.159684 628.008621 
L 866.956575 628.008621 
L 866.956575 628.340517 
L 872.753465 628.340517 
L 872.753465 629.668103 
L 878.550355 629.668103 
L 878.550355 626.681035 
L 884.347245 626.681035 
L 884.347245 628.340517 
L 890.144135 628.340517 
L 890.144135 629.00431 
L 895.941026 629.00431 
L 895.941026 629.668103 
L 901.737916 629.668103 
L 901.737916 629.336207 
L 907.534806 629.336207 
L 907.534806 629.336207 
L 913.331696 629.336207 
L 913.331696 628.008621 
L 919.128586 628.008621 
L 919.128586 630 
L 924.925477 630 
L 924.925477 629.668103 
L 930.722367 629.668103 
L 930.722367 629.336207 
L 936.519257 629.336207 
L 936.519257 629.336207 
L 942.316147 629.336207 
L 942.316147 629.668103 
L 948.113037 629.668103 
L 948.113037 629.668103 
L 953.909928 629.668103 
L 953.909928 629.336207 
L 959.706818 629.336207 
L 959.706818 629.336207 
L 965.503708 629.336207 
L 965.503708 629.668103 
L 971.300598 629.668103 
L 971.300598 629.336207 
L 977.097489 629.336207 
L 977.097489 630 
L 982.894379 630 
L 982.894379 629.668103 
L 988.691269 629.668103 
L 988.691269 628.672414 
L 994.488159 628.672414 
L 994.488159 628.672414 
L 1000.285049 628.672414 
L 1000.285049 629.336207 
L 1006.08194 629.336207 
L 1006.08194 629.668103 
L 1011.87883 629.668103 
L 1011.87883 629.668103 
L 1017.67572 629.668103 
L 1017.67572 629.336207 
L 1023.47261 629.336207 
L 1023.47261 629.668103 
L 1029.2695 629.668103 
L 1029.2695 629.668103 
L 1035.066391 629.668103 
L 1035.066391 629.668103 
L 1040.863281 629.668103 
L 1040.863281 629.668103 
L 1046.660171 629.668103 
L 1046.660171 630 
L 1052.457061 630 
L 1052.457061 629.668103 
L 1058.253951 629.668103 
L 1058.253951 630 
L 1064.050842 630 
L 1064.050842 629.668103 
L 1069.847732 629.668103 
L 1069.847732 630 
L 1075.644622 630 
L 1075.644622 629.668103 
L 1081.441512 629.668103 
L 1081.441512 629.336207 
L 1087.238402 629.336207 
L 1087.238402 629.336207 
L 1093.035293 629.336207 
L 1093.035293 629.668103 
L 1098.832183 629.668103 
L 1098.832183 630 
L 1104.629073 630 
L 1104.629073 629.336207 
L 1110.425963 629.336207 
L 1110.425963 630 
L 1116.222853 630 
L 1116.222853 629.668103 
L 1122.019744 629.668103 
L 1122.019744 629.336207 
L 1127.816634 629.336207 
L 1127.816634 629.668103 
L 1133.613524 629.668103 
L 1133.613524 630 
L 1139.410414 630 
L 1139.410414 630 
L 1145.207305 630 
L 1145.207305 629.668103 
L 1151.004195 629.668103 
L 1151.004195 630 
L 1156.801085 630 
L 1156.801085 630 
L 1162.597975 630 
L 1162.597975 630 
L 1168.394865 630 
L 1168.394865 630 
L 1174.191756 630 
L 1174.191756 630 
L 1179.988646 630 
L 1179.988646 629.668103 
L 1185.785536 629.668103 
L 1185.785536 629.668103 
L 1191.582426 629.668103 
L 1191.582426 630 
L 1197.379316 630 
L 1197.379316 630 
L 1203.176207 630 
L 1203.176207 630 
L 1208.973097 630 
L 1208.973097 630 
L 1214.769987 630 
L 1214.769987 630 
L 1220.566877 630 
L 1220.566877 630 
L 1226.363767 630 
L 1226.363767 630 
L 1232.160658 630 
L 1232.160658 630 
L 1237.957548 630 
L 1237.957548 629.668103 
L 1243.754438 629.668103 
L 1243.754438 630 
L 1249.551328 630 
L 1249.551328 630 
L 1255.348218 630 
L 1255.348218 630 
L 1261.145109 630 
L 1261.145109 630 
L 1266.941999 630 
L 1266.941999 630 
L 1272.738889 630 
L 1272.738889 630 
L 1278.535779 630 
L 1278.535779 630 
L 1284.33267 630 
L 1284.33267 630 
L 1290.12956 630 
L 1290.12956 630 
L 1295.92645 630 
L 1295.92645 630 
L 1301.72334 630 
L 1301.72334 630 
L 1307.52023 630 
L 1307.52023 630 
L 1313.317121 630 
L 1313.317121 630 
L 1319.114011 630 
L 1319.114011 630 
L 1324.910901 630 
L 1324.910901 630 
L 1330.707791 630 
L 1330.707791 630 
L 1336.504681 630 
L 1336.504681 629.668103 
L 1342.301572 629.668103 
L 1342.301572 630 
L 1348.098462 630 
L 1348.098462 630 
L 1353.895352 630 
L 1353.895352 630 
L 1359.692242 630 
L 1359.692242 629.668103 
L 1365.489132 629.668103 
L 1365.489132 630 
L 1371.286023 630 
L 1371.286023 630 
L 1377.082913 630 
L 1377.082913 630 
L 1382.879803 630 
L 1382.879803 629.668103 
L 1388.676693 629.668103 
L 1388.676693 630 
L 1394.473583 630 
L 1394.473583 630 
L 1400.270474 630 
L 1400.270474 630 
L 1406.067364 630 
L 1406.067364 630 
L 1411.864254 630 
L 1411.864254 630 
L 1417.661144 630 
L 1417.661144 630 
L 1423.458034 630 
L 1423.458034 630 
L 1429.254925 630 
L 1429.254925 630 
L 1435.051815 630 
L 1435.051815 630 
L 1440.848705 630 
L 1440.848705 630 
L 1446.645595 630 
L 1446.645595 630 
L 1452.442486 630 
L 1452.442486 630 
L 1458.239376 630 
L 1458.239376 630 
L 1464.036266 630 
L 1464.036266 630 
L 1469.833156 630 
L 1469.833156 630 
L 1475.630046 630 
L 1475.630046 629.668103 
L 1481.426937 629.668103 
L 1481.426937 630 
L 1487.223827 630 
L 1487.223827 630 
L 1493.020717 630 
L 1493.020717 629.668103 
L 1498.817607 629.668103 
L 1498.817607 630 
L 1504.614497 630 
L 1504.614497 630 
L 1510.411388 630 
L 1510.411388 630 
L 1516.208278 630 
L 1516.208278 630 
L 1522.005168 630 
L 1522.005168 630 
L 1527.802058 630 
L 1527.802058 630 
L 1533.598948 630 
L 1533.598948 630 
L 1539.395839 630 
L 1539.395839 630 
L 1545.192729 630 
L 1545.192729 630 
L 1550.989619 630 
L 1550.989619 630 
L 1556.786509 630 
L 1556.786509 630 
L 1562.583399 630 
L 1562.583399 630 
L 1568.38029 630 
L 1568.38029 630 
L 1574.17718 630 
L 1574.17718 630 
L 1579.97407 630 
L 1579.97407 630 
L 1585.77096 630 
L 1585.77096 630 
L 1591.567851 630 
L 1591.567851 630 
L 1597.364741 630 
L 1597.364741 630 
L 1603.161631 630 
L 1603.161631 630 
L 1608.958521 630 
L 1608.958521 630 
L 1614.755411 630 
L 1614.755411 630 
L 1620.552302 630 
L 1620.552302 630 
L 1626.349192 630 
L 1626.349192 630 
L 1632.146082 630 
L 1632.146082 629.668103 
L 1637.942972 629.668103 
L 1637.942972 630 
L 1643.739862 630 
L 1643.739862 630 
L 1649.536753 630 
L 1649.536753 630 
L 1655.333643 630 
L 1655.333643 630 
L 1661.130533 630 
L 1661.130533 630 
L 1666.927423 630 
L 1666.927423 630 
L 1672.724313 630 
L 1672.724313 630 
L 1678.521204 630 
L 1678.521204 630 
L 1684.318094 630 
L 1684.318094 630 
L 1690.114984 630 
L 1690.114984 630 
L 1695.911874 630 
L 1695.911874 630 
L 1701.708764 630 
L 1701.708764 630 
L 1707.505655 630 
L 1707.505655 630 
L 1713.302545 630 
L 1713.302545 630 
L 1719.099435 630 
L 1719.099435 630 
L 1724.896325 630 
L 1724.896325 630 
L 1730.693216 630 
L 1730.693216 630 
L 1736.490106 630 
L 1736.490106 630 
L 1742.286996 630 
L 1742.286996 630 
L 1748.083886 630 
L 1748.083886 630 
L 1753.880776 630 
L 1753.880776 630 
L 1759.677667 630 
L 1759.677667 630 
L 1765.474557 630 
L 1765.474557 630 
L 1771.271447 630 
L 1771.271447 630 
L 1777.068337 630 
L 1777.068337 630 
L 1782.865227 630 
L 1782.865227 630 
L 1788.662118 630 
L 1788.662118 630 
L 1794.459008 630 
L 1794.459008 630 
L 1800.255898 630 
L 1800.255898 630 
L 1806.052788 630 
L 1806.052788 630 
L 1811.849678 630 
L 1811.849678 630 
L 1817.646569 630 
L 1817.646569 630 
L 1823.443459 630 
L 1823.443459 630 
L 1829.240349 630 
L 1829.240349 630 
L 1835.037239 630 
L 1835.037239 630 
L 1840.834129 630 
L 1840.834129 630 
L 1846.63102 630 
L 1846.63102 630 
L 1852.42791 630 
L 1852.42791 630 
L 1858.2248 630 
L 1858.2248 630 
L 1864.02169 630 
L 1864.02169 630 
L 1869.81858 630 
L 1869.81858 630 
L 1875.615471 630 
L 1875.615471 630 
L 1881.412361 630 
L 1881.412361 630 
L 1887.209251 630 
L 1887.209251 630 
L 1893.006141 630 
L 1893.006141 630 
L 1898.803032 630 
L 1898.803032 630 
L 1904.599922 630 
L 1904.599922 630 
L 1910.396812 630 
L 1910.396812 630 
L 1916.193702 630 
L 1916.193702 630 
L 1921.990592 630 
L 1921.990592 630 
L 1927.787483 630 
L 1927.787483 630 
L 1933.584373 630 
L 1933.584373 630 
L 1939.381263 630 
L 1939.381263 630 
L 1945.178153 630 
L 1945.178153 630 
L 1950.975043 630 
L 1950.975043 630 
L 1956.771934 630 
L 1956.771934 630 
L 1962.568824 630 
L 1962.568824 629.668103 
L 1968.365714 629.668103 
L 1968.365714 630 
L 1974.162604 630 
L 1974.162604 630 
L 1979.959494 630 
L 1979.959494 630 
L 1985.756385 630 
L 1985.756385 630 
L 1991.553275 630 
L 1991.553275 630 
L 1997.350165 630 
L 1997.350165 630 
L 2003.147055 630 
L 2003.147055 630 
L 2008.943945 630 
L 2008.943945 630 
L 2014.740836 630 
L 2014.740836 630 
L 2020.537726 630 
L 2020.537726 630 
L 2026.334616 630 
L 2026.334616 630 
L 2032.131506 630 
L 2032.131506 630 
L 2037.928397 630 
L 2037.928397 630 
L 2043.725287 630 
L 2043.725287 630 
L 2049.522177 630 
L 2049.522177 630 
L 2055.319067 630 
L 2055.319067 630 
L 2061.115957 630 
L 2061.115957 630 
L 2066.912848 630 
L 2066.912848 630 
L 2072.709738 630 
L 2072.709738 630 
L 2078.506628 630 
L 2078.506628 630 
L 2084.303518 630 
L 2084.303518 630 
L 2090.100408 630 
L 2090.100408 630 
L 2095.897299 630 
L 2095.897299 630 
L 2101.694189 630 
L 2101.694189 630 
L 2107.491079 630 
L 2107.491079 630 
L 2113.287969 630 
L 2113.287969 630 
L 2119.084859 630 
L 2119.084859 630 
L 2124.88175 630 
L 2124.88175 630 
L 2130.67864 630 
L 2130.67864 630 
L 2136.47553 630 
L 2136.47553 630 
L 2142.27242 630 
L 2142.27242 630 
L 2148.06931 630 
L 2148.06931 630 
L 2153.866201 630 
L 2153.866201 630 
L 2159.663091 630 
L 2159.663091 630 
L 2165.459981 630 
L 2165.459981 630 
L 2171.256871 630 
L 2171.256871 630 
L 2177.053761 630 
L 2177.053761 630 
L 2182.850652 630 
L 2182.850652 630 
L 2188.647542 630 
L 2188.647542 630 
L 2194.444432 630 
L 2194.444432 630 
L 2200.241322 630 
L 2200.241322 630 
L 2206.038213 630 
L 2206.038213 630 
L 2211.835103 630 
L 2211.835103 630 
L 2217.631993 630 
L 2217.631993 630 
L 2223.428883 630 
L 2223.428883 630 
L 2229.225773 630 
L 2229.225773 630 
L 2235.022664 630 
L 2235.022664 630 
L 2240.819554 630 
L 2240.819554 630 
L 2246.616444 630 
L 2246.616444 630 
L 2252.413334 630 
L 2252.413334 630 
L 2258.210224 630 
L 2258.210224 630 
L 2264.007115 630 
L 2264.007115 630 
L 2269.804005 630 
L 2269.804005 630 
L 2275.600895 630 
L 2275.600895 630 
L 2281.397785 630 
L 2281.397785 630 
L 2287.194675 630 
L 2287.194675 630 
L 2292.991566 630 
L 2292.991566 630 
L 2298.788456 630 
L 2298.788456 630 
L 2304.585346 630 
L 2304.585346 630 
L 2310.382236 630 
L 2310.382236 630 
L 2316.179126 630 
L 2316.179126 630 
L 2321.976017 630 
L 2321.976017 630 
L 2327.772907 630 
L 2327.772907 630 
L 2333.569797 630 
L 2333.569797 630 
L 2339.366687 630 
L 2339.366687 630 
L 2345.163578 630 
L 2345.163578 630 
L 2350.960468 630 
L 2350.960468 630 
L 2356.757358 630 
L 2356.757358 630 
L 2362.554248 630 
L 2362.554248 630 
L 2368.351138 630 
L 2368.351138 630 
L 2374.148029 630 
L 2374.148029 630 
L 2379.944919 630 
L 2379.944919 630 
L 2385.741809 630 
L 2385.741809 630 
L 2391.538699 630 
L 2391.538699 630 
L 2397.335589 630 
L 2397.335589 630 
L 2403.13248 630 
L 2403.13248 630 
L 2408.92937 630 
L 2408.92937 630 
L 2414.72626 630 
L 2414.72626 630 
L 2420.52315 630 
L 2420.52315 630 
L 2426.32004 630 
L 2426.32004 630 
L 2432.116931 630 
L 2432.116931 630 
L 2437.913821 630 
L 2437.913821 630 
L 2443.710711 630 
L 2443.710711 630 
L 2449.507601 630 
L 2449.507601 630 
L 2455.304491 630 
L 2455.304491 630 
L 2461.101382 630 
L 2461.101382 629.668103 
L 2466.898272 629.668103 
L 2466.898272 630 
L 2472.695162 630 
L 2472.695162 630 
L 2478.492052 630 
L 2478.492052 630 
L 2484.288943 630 
L 2484.288943 630 
L 2490.085833 630 
L 2490.085833 630 
L 2495.882723 630 
L 2495.882723 630 
L 2501.679613 630 
L 2501.679613 630 
L 2507.476503 630 
L 2507.476503 630 
L 2513.273394 630 
L 2513.273394 630 
L 2519.070284 630 
L 2519.070284 630 
L 2524.867174 630 
L 2524.867174 630 
L 2530.664064 630 
L 2530.664064 630 
L 2536.460954 630 
L 2536.460954 630 
L 2542.257845 630 
L 2542.257845 630 
L 2548.054735 630 
L 2548.054735 630 
L 2553.851625 630 
L 2553.851625 629.668103 
L 2559.648515 629.668103 
L 2559.648515 630 
L 2565.445405 630 
L 2565.445405 630 
L 2571.242296 630 
L 2571.242296 630 
L 2577.039186 630 
L 2577.039186 630 
L 2582.836076 630 
L 2582.836076 630 
L 2588.632966 630 
L 2588.632966 630 
L 2594.429856 630 
L 2594.429856 630 
L 2600.226747 630 
L 2600.226747 630 
L 2606.023637 630 
L 2606.023637 630 
L 2611.820527 630 
L 2611.820527 630 
L 2617.617417 630 
L 2617.617417 630 
L 2623.414307 630 
L 2623.414307 630 
L 2629.211198 630 
L 2629.211198 630 
L 2635.008088 630 
L 2635.008088 630 
L 2640.804978 630 
L 2640.804978 629.668103 
L 2646.601868 629.668103 
L 2646.601868 630 
L 2652.398759 630 
L 2652.398759 630 
L 2658.195649 630 
L 2658.195649 630 
L 2663.992539 630 
L 2663.992539 630 
L 2669.789429 630 
L 2669.789429 630 
L 2675.586319 630 
L 2675.586319 630 
L 2681.38321 630 
L 2681.38321 630 
L 2687.1801 630 
L 2687.1801 630 
L 2692.97699 630 
L 2692.97699 630 
L 2698.77388 630 
L 2698.77388 630 
L 2704.57077 630 
L 2704.57077 630 
L 2710.367661 630 
L 2710.367661 630 
L 2716.164551 630 
L 2716.164551 629.668103 
L 2721.961441 629.668103 
L 2721.961441 630 
L 2727.758331 630 
L 2727.758331 630 
L 2733.555221 630 
L 2733.555221 630 
L 2739.352112 630 
L 2739.352112 630 
L 2745.149002 630 
L 2745.149002 630 
L 2750.945892 630 
L 2750.945892 629.668103 
L 2756.742782 629.668103 
L 2756.742782 630 
L 2762.539672 630 
L 2762.539672 630 
L 2768.336563 630 
L 2768.336563 630 
L 2774.133453 630 
L 2774.133453 630 
L 2779.930343 630 
L 2779.930343 630 
L 2785.727233 630 
L 2785.727233 630 
L 2791.524124 630 
L 2791.524124 630 
L 2797.321014 630 
L 2797.321014 630 
L 2803.117904 630 
L 2803.117904 630 
L 2808.914794 630 
L 2808.914794 630 
L 2814.711684 630 
L 2814.711684 630 
L 2820.508575 630 
L 2820.508575 630 
L 2826.305465 630 
L 2826.305465 630 
L 2832.102355 630 
L 2832.102355 630 
L 2837.899245 630 
L 2837.899245 630 
L 2843.696135 630 
L 2843.696135 630 
L 2849.493026 630 
L 2849.493026 630 
L 2855.289916 630 
L 2855.289916 630 
L 2861.086806 630 
L 2861.086806 630 
L 2866.883696 630 
L 2866.883696 630 
L 2872.680586 630 
L 2872.680586 630 
L 2878.477477 630 
L 2878.477477 630 
L 2884.274367 630 
L 2884.274367 630 
L 2890.071257 630 
L 2890.071257 630 
L 2895.868147 630 
L 2895.868147 630 
L 2901.665037 630 
L 2901.665037 630 
L 2907.461928 630 
L 2907.461928 630 
L 2913.258818 630 
L 2913.258818 630 
L 2919.055708 630 
L 2919.055708 630 
L 2924.852598 630 
L 2924.852598 630 
L 2930.649488 630 
L 2930.649488 630 
L 2936.446379 630 
L 2936.446379 630 
L 2942.243269 630 
L 2942.243269 630 
L 2948.040159 630 
L 2948.040159 630 
L 2953.837049 630 
L 2953.837049 630 
L 2959.63394 630 
L 2959.63394 630 
L 2965.43083 630 
L 2965.43083 630 
L 2971.22772 630 
L 2971.22772 629.668103 
L 2977.02461 629.668103 
L 2977.02461 630 
L 2982.8215 630 
L 2982.8215 630 
L 2988.618391 630 
L 2988.618391 630 
L 2994.415281 630 
L 2994.415281 630 
L 3000.212171 630 
L 3000.212171 629.668103 
L 3006.009061 629.668103 
L 3006.009061 630 
L 3011.805951 630 
L 3011.805951 630 
L 3017.602842 630 
L 3017.602842 630 
L 3023.399732 630 
L 3023.399732 630 
L 3029.196622 630 
L 3029.196622 630 
L 3034.993512 630 
L 3034.993512 630 
L 3040.790402 630 
L 3040.790402 630 
L 3046.587293 630 
L 3046.587293 630 
L 3052.384183 630 
L 3052.384183 630 
L 3058.181073 630 
L 3058.181073 630 
L 3063.977963 630 
L 3063.977963 630 
L 3069.774853 630 
L 3069.774853 630 
L 3075.571744 630 
L 3075.571744 630 
L 3081.368634 630 
L 3081.368634 630 
L 3087.165524 630 
L 3087.165524 630 
L 3092.962414 630 
L 3092.962414 630 
L 3098.759305 630 
L 3098.759305 630 
L 3104.556195 630 
L 3104.556195 630 
L 3110.353085 630 
L 3110.353085 630 
L 3116.149975 630 
L 3116.149975 630 
L 3121.946865 630 
L 3121.946865 630 
L 3127.743756 630 
L 3127.743756 630 
L 3133.540646 630 
L 3133.540646 630 
L 3139.337536 630 
L 3139.337536 630 
L 3145.134426 630 
L 3145.134426 630 
L 3150.931316 630 
L 3150.931316 630 
L 3156.728207 630 
L 3156.728207 630 
L 3162.525097 630 
L 3162.525097 630 
L 3168.321987 630 
L 3168.321987 630 
L 3174.118877 630 
L 3174.118877 630 
L 3179.915767 630 
L 3179.915767 630 
L 3185.712658 630 
L 3185.712658 630 
L 3191.509548 630 
L 3191.509548 630 
L 3197.306438 630 
L 3197.306438 630 
L 3203.103328 630 
L 3203.103328 630 
L 3208.900218 630 
L 3208.900218 630 
L 3214.697109 630 
L 3214.697109 630 
L 3220.493999 630 
L 3220.493999 629.668103 
L 3226.290889 629.668103 
L 3226.290889 630 
L 3220.493999 630 
L 3220.493999 630 
L 3214.697109 630 
L 3214.697109 630 
L 3208.900218 630 
L 3208.900218 630 
L 3203.103328 630 
L 3203.103328 630 
L 3197.306438 630 
L 3197.306438 630 
L 3191.509548 630 
L 3191.509548 630 
L 3185.712658 630 
L 3185.712658 630 
L 3179.915767 630 
L 3179.915767 630 
L 3174.118877 630 
L 3174.118877 630 
L 3168.321987 630 
L 3168.321987 630 
L 3162.525097 630 
L 3162.525097 630 
L 3156.728207 630 
L 3156.728207 630 
L 3150.931316 630 
L 3150.931316 630 
L 3145.134426 630 
L 3145.134426 630 
L 3139.337536 630 
L 3139.337536 630 
L 3133.540646 630 
L 3133.540646 630 
L 3127.743756 630 
L 3127.743756 630 
L 3121.946865 630 
L 3121.946865 630 
L 3116.149975 630 
L 3116.149975 630 
L 3110.353085 630 
L 3110.353085 630 
L 3104.556195 630 
L 3104.556195 630 
L 3098.759305 630 
L 3098.759305 630 
L 3092.962414 630 
L 3092.962414 630 
L 3087.165524 630 
L 3087.165524 630 
L 3081.368634 630 
L 3081.368634 630 
L 3075.571744 630 
L 3075.571744 630 
L 3069.774853 630 
L 3069.774853 630 
L 3063.977963 630 
L 3063.977963 630 
L 3058.181073 630 
L 3058.181073 630 
L 3052.384183 630 
L 3052.384183 630 
L 3046.587293 630 
L 3046.587293 630 
L 3040.790402 630 
L 3040.790402 630 
L 3034.993512 630 
L 3034.993512 630 
L 3029.196622 630 
L 3029.196622 630 
L 3023.399732 630 
L 3023.399732 630 
L 3017.602842 630 
L 3017.602842 630 
L 3011.805951 630 
L 3011.805951 630 
L 3006.009061 630 
L 3006.009061 630 
L 3000.212171 630 
L 3000.212171 630 
L 2994.415281 630 
L 2994.415281 630 
L 2988.618391 630 
L 2988.618391 630 
L 2982.8215 630 
L 2982.8215 630 
L 2977.02461 630 
L 2977.02461 630 
L 2971.22772 630 
L 2971.22772 630 
L 2965.43083 630 
L 2965.43083 630 
L 2959.63394 630 
L 2959.63394 630 
L 2953.837049 630 
L 2953.837049 630 
L 2948.040159 630 
L 2948.040159 630 
L 2942.243269 630 
L 2942.243269 630 
L 2936.446379 630 
L 2936.446379 630 
L 2930.649488 630 
L 2930.649488 630 
L 2924.852598 630 
L 2924.852598 630 
L 2919.055708 630 
L 2919.055708 630 
L 2913.258818 630 
L 2913.258818 630 
L 2907.461928 630 
L 2907.461928 630 
L 2901.665037 630 
L 2901.665037 630 
L 2895.868147 630 
L 2895.868147 630 
L 2890.071257 630 
L 2890.071257 630 
L 2884.274367 630 
L 2884.274367 630 
L 2878.477477 630 
L 2878.477477 630 
L 2872.680586 630 
L 2872.680586 630 
L 2866.883696 630 
L 2866.883696 630 
L 2861.086806 630 
L 2861.086806 630 
L 2855.289916 630 
L 2855.289916 630 
L 2849.493026 630 
L 2849.493026 630 
L 2843.696135 630 
L 2843.696135 630 
L 2837.899245 630 
L 2837.899245 630 
L 2832.102355 630 
L 2832.102355 630 
L 2826.305465 630 
L 2826.305465 630 
L 2820.508575 630 
L 2820.508575 630 
L 2814.711684 630 
L 2814.711684 630 
L 2808.914794 630 
L 2808.914794 630 
L 2803.117904 630 
L 2803.117904 630 
L 2797.321014 630 
L 2797.321014 630 
L 2791.524124 630 
L 2791.524124 630 
L 2785.727233 630 
L 2785.727233 630 
L 2779.930343 630 
L 2779.930343 630 
L 2774.133453 630 
L 2774.133453 630 
L 2768.336563 630 
L 2768.336563 630 
L 2762.539672 630 
L 2762.539672 630 
L 2756.742782 630 
L 2756.742782 630 
L 2750.945892 630 
L 2750.945892 630 
L 2745.149002 630 
L 2745.149002 630 
L 2739.352112 630 
L 2739.352112 630 
L 2733.555221 630 
L 2733.555221 630 
L 2727.758331 630 
L 2727.758331 630 
L 2721.961441 630 
L 2721.961441 630 
L 2716.164551 630 
L 2716.164551 630 
L 2710.367661 630 
L 2710.367661 630 
L 2704.57077 630 
L 2704.57077 630 
L 2698.77388 630 
L 2698.77388 630 
L 2692.97699 630 
L 2692.97699 630 
L 2687.1801 630 
L 2687.1801 630 
L 2681.38321 630 
L 2681.38321 630 
L 2675.586319 630 
L 2675.586319 630 
L 2669.789429 630 
L 2669.789429 630 
L 2663.992539 630 
L 2663.992539 630 
L 2658.195649 630 
L 2658.195649 630 
L 2652.398759 630 
L 2652.398759 630 
L 2646.601868 630 
L 2646.601868 630 
L 2640.804978 630 
L 2640.804978 630 
L 2635.008088 630 
L 2635.008088 630 
L 2629.211198 630 
L 2629.211198 630 
L 2623.414307 630 
L 2623.414307 630 
L 2617.617417 630 
L 2617.617417 630 
L 2611.820527 630 
L 2611.820527 630 
L 2606.023637 630 
L 2606.023637 630 
L 2600.226747 630 
L 2600.226747 630 
L 2594.429856 630 
L 2594.429856 630 
L 2588.632966 630 
L 2588.632966 630 
L 2582.836076 630 
L 2582.836076 630 
L 2577.039186 630 
L 2577.039186 630 
L 2571.242296 630 
L 2571.242296 630 
L 2565.445405 630 
L 2565.445405 630 
L 2559.648515 630 
L 2559.648515 630 
L 2553.851625 630 
L 2553.851625 630 
L 2548.054735 630 
L 2548.054735 630 
L 2542.257845 630 
L 2542.257845 630 
L 2536.460954 630 
L 2536.460954 630 
L 2530.664064 630 
L 2530.664064 630 
L 2524.867174 630 
L 2524.867174 630 
L 2519.070284 630 
L 2519.070284 630 
L 2513.273394 630 
L 2513.273394 630 
L 2507.476503 630 
L 2507.476503 630 
L 2501.679613 630 
L 2501.679613 630 
L 2495.882723 630 
L 2495.882723 630 
L 2490.085833 630 
L 2490.085833 630 
L 2484.288943 630 
L 2484.288943 630 
L 2478.492052 630 
L 2478.492052 630 
L 2472.695162 630 
L 2472.695162 630 
L 2466.898272 630 
L 2466.898272 630 
L 2461.101382 630 
L 2461.101382 630 
L 2455.304491 630 
L 2455.304491 630 
L 2449.507601 630 
L 2449.507601 630 
L 2443.710711 630 
L 2443.710711 630 
L 2437.913821 630 
L 2437.913821 630 
L 2432.116931 630 
L 2432.116931 630 
L 2426.32004 630 
L 2426.32004 630 
L 2420.52315 630 
L 2420.52315 630 
L 2414.72626 630 
L 2414.72626 630 
L 2408.92937 630 
L 2408.92937 630 
L 2403.13248 630 
L 2403.13248 630 
L 2397.335589 630 
L 2397.335589 630 
L 2391.538699 630 
L 2391.538699 630 
L 2385.741809 630 
L 2385.741809 630 
L 2379.944919 630 
L 2379.944919 630 
L 2374.148029 630 
L 2374.148029 630 
L 2368.351138 630 
L 2368.351138 630 
L 2362.554248 630 
L 2362.554248 630 
L 2356.757358 630 
L 2356.757358 630 
L 2350.960468 630 
L 2350.960468 630 
L 2345.163578 630 
L 2345.163578 630 
L 2339.366687 630 
L 2339.366687 630 
L 2333.569797 630 
L 2333.569797 630 
L 2327.772907 630 
L 2327.772907 630 
L 2321.976017 630 
L 2321.976017 630 
L 2316.179126 630 
L 2316.179126 630 
L 2310.382236 630 
L 2310.382236 630 
L 2304.585346 630 
L 2304.585346 630 
L 2298.788456 630 
L 2298.788456 630 
L 2292.991566 630 
L 2292.991566 630 
L 2287.194675 630 
L 2287.194675 630 
L 2281.397785 630 
L 2281.397785 630 
L 2275.600895 630 
L 2275.600895 630 
L 2269.804005 630 
L 2269.804005 630 
L 2264.007115 630 
L 2264.007115 630 
L 2258.210224 630 
L 2258.210224 630 
L 2252.413334 630 
L 2252.413334 630 
L 2246.616444 630 
L 2246.616444 630 
L 2240.819554 630 
L 2240.819554 630 
L 2235.022664 630 
L 2235.022664 630 
L 2229.225773 630 
L 2229.225773 630 
L 2223.428883 630 
L 2223.428883 630 
L 2217.631993 630 
L 2217.631993 630 
L 2211.835103 630 
L 2211.835103 630 
L 2206.038213 630 
L 2206.038213 630 
L 2200.241322 630 
L 2200.241322 630 
L 2194.444432 630 
L 2194.444432 630 
L 2188.647542 630 
L 2188.647542 630 
L 2182.850652 630 
L 2182.850652 630 
L 2177.053761 630 
L 2177.053761 630 
L 2171.256871 630 
L 2171.256871 630 
L 2165.459981 630 
L 2165.459981 630 
L 2159.663091 630 
L 2159.663091 630 
L 2153.866201 630 
L 2153.866201 630 
L 2148.06931 630 
L 2148.06931 630 
L 2142.27242 630 
L 2142.27242 630 
L 2136.47553 630 
L 2136.47553 630 
L 2130.67864 630 
L 2130.67864 630 
L 2124.88175 630 
L 2124.88175 630 
L 2119.084859 630 
L 2119.084859 630 
L 2113.287969 630 
L 2113.287969 630 
L 2107.491079 630 
L 2107.491079 630 
L 2101.694189 630 
L 2101.694189 630 
L 2095.897299 630 
L 2095.897299 630 
L 2090.100408 630 
L 2090.100408 630 
L 2084.303518 630 
L 2084.303518 630 
L 2078.506628 630 
L 2078.506628 630 
L 2072.709738 630 
L 2072.709738 630 
L 2066.912848 630 
L 2066.912848 630 
L 2061.115957 630 
L 2061.115957 630 
L 2055.319067 630 
L 2055.319067 630 
L 2049.522177 630 
L 2049.522177 630 
L 2043.725287 630 
L 2043.725287 630 
L 2037.928397 630 
L 2037.928397 630 
L 2032.131506 630 
L 2032.131506 630 
L 2026.334616 630 
L 2026.334616 630 
L 2020.537726 630 
L 2020.537726 630 
L 2014.740836 630 
L 2014.740836 630 
L 2008.943945 630 
L 2008.943945 630 
L 2003.147055 630 
L 2003.147055 630 
L 1997.350165 630 
L 1997.350165 630 
L 1991.553275 630 
L 1991.553275 630 
L 1985.756385 630 
L 1985.756385 630 
L 1979.959494 630 
L 1979.959494 630 
L 1974.162604 630 
L 1974.162604 630 
L 1968.365714 630 
L 1968.365714 630 
L 1962.568824 630 
L 1962.568824 630 
L 1956.771934 630 
L 1956.771934 630 
L 1950.975043 630 
L 1950.975043 630 
L 1945.178153 630 
L 1945.178153 630 
L 1939.381263 630 
L 1939.381263 630 
L 1933.584373 630 
L 1933.584373 630 
L 1927.787483 630 
L 1927.787483 630 
L 1921.990592 630 
L 1921.990592 630 
L 1916.193702 630 
L 1916.193702 630 
L 1910.396812 630 
L 1910.396812 630 
L 1904.599922 630 
L 1904.599922 630 
L 1898.803032 630 
L 1898.803032 630 
L 1893.006141 630 
L 1893.006141 630 
L 1887.209251 630 
L 1887.209251 630 
L 1881.412361 630 
L 1881.412361 630 
L 1875.615471 630 
L 1875.615471 630 
L 1869.81858 630 
L 1869.81858 630 
L 1864.02169 630 
L 1864.02169 630 
L 1858.2248 630 
L 1858.2248 630 
L 1852.42791 630 
L 1852.42791 630 
L 1846.63102 630 
L 1846.63102 630 
L 1840.834129 630 
L 1840.834129 630 
L 1835.037239 630 
L 1835.037239 630 
L 1829.240349 630 
L 1829.240349 630 
L 1823.443459 630 
L 1823.443459 630 
L 1817.646569 630 
L 1817.646569 630 
L 1811.849678 630 
L 1811.849678 630 
L 1806.052788 630 
L 1806.052788 630 
L 1800.255898 630 
L 1800.255898 630 
L 1794.459008 630 
L 1794.459008 630 
L 1788.662118 630 
L 1788.662118 630 
L 1782.865227 630 
L 1782.865227 630 
L 1777.068337 630 
L 1777.068337 630 
L 1771.271447 630 
L 1771.271447 630 
L 1765.474557 630 
L 1765.474557 630 
L 1759.677667 630 
L 1759.677667 630 
L 1753.880776 630 
L 1753.880776 630 
L 1748.083886 630 
L 1748.083886 630 
L 1742.286996 630 
L 1742.286996 630 
L 1736.490106 630 
L 1736.490106 630 
L 1730.693216 630 
L 1730.693216 630 
L 1724.896325 630 
L 1724.896325 630 
L 1719.099435 630 
L 1719.099435 630 
L 1713.302545 630 
L 1713.302545 630 
L 1707.505655 630 
L 1707.505655 630 
L 1701.708764 630 
L 1701.708764 630 
L 1695.911874 630 
L 1695.911874 630 
L 1690.114984 630 
L 1690.114984 630 
L 1684.318094 630 
L 1684.318094 630 
L 1678.521204 630 
L 1678.521204 630 
L 1672.724313 630 
L 1672.724313 630 
L 1666.927423 630 
L 1666.927423 630 
L 1661.130533 630 
L 1661.130533 630 
L 1655.333643 630 
L 1655.333643 630 
L 1649.536753 630 
L 1649.536753 630 
L 1643.739862 630 
L 1643.739862 630 
L 1637.942972 630 
L 1637.942972 630 
L 1632.146082 630 
L 1632.146082 630 
L 1626.349192 630 
L 1626.349192 630 
L 1620.552302 630 
L 1620.552302 630 
L 1614.755411 630 
L 1614.755411 630 
L 1608.958521 630 
L 1608.958521 630 
L 1603.161631 630 
L 1603.161631 630 
L 1597.364741 630 
L 1597.364741 630 
L 1591.567851 630 
L 1591.567851 630 
L 1585.77096 630 
L 1585.77096 630 
L 1579.97407 630 
L 1579.97407 630 
L 1574.17718 630 
L 1574.17718 630 
L 1568.38029 630 
L 1568.38029 630 
L 1562.583399 630 
L 1562.583399 630 
L 1556.786509 630 
L 1556.786509 630 
L 1550.989619 630 
L 1550.989619 630 
L 1545.192729 630 
L 1545.192729 630 
L 1539.395839 630 
L 1539.395839 630 
L 1533.598948 630 
L 1533.598948 630 
L 1527.802058 630 
L 1527.802058 630 
L 1522.005168 630 
L 1522.005168 630 
L 1516.208278 630 
L 1516.208278 630 
L 1510.411388 630 
L 1510.411388 630 
L 1504.614497 630 
L 1504.614497 630 
L 1498.817607 630 
L 1498.817607 630 
L 1493.020717 630 
L 1493.020717 630 
L 1487.223827 630 
L 1487.223827 630 
L 1481.426937 630 
L 1481.426937 630 
L 1475.630046 630 
L 1475.630046 630 
L 1469.833156 630 
L 1469.833156 630 
L 1464.036266 630 
L 1464.036266 630 
L 1458.239376 630 
L 1458.239376 630 
L 1452.442486 630 
L 1452.442486 630 
L 1446.645595 630 
L 1446.645595 630 
L 1440.848705 630 
L 1440.848705 630 
L 1435.051815 630 
L 1435.051815 630 
L 1429.254925 630 
L 1429.254925 630 
L 1423.458034 630 
L 1423.458034 630 
L 1417.661144 630 
L 1417.661144 630 
L 1411.864254 630 
L 1411.864254 630 
L 1406.067364 630 
L 1406.067364 630 
L 1400.270474 630 
L 1400.270474 630 
L 1394.473583 630 
L 1394.473583 630 
L 1388.676693 630 
L 1388.676693 630 
L 1382.879803 630 
L 1382.879803 630 
L 1377.082913 630 
L 1377.082913 630 
L 1371.286023 630 
L 1371.286023 630 
L 1365.489132 630 
L 1365.489132 630 
L 1359.692242 630 
L 1359.692242 630 
L 1353.895352 630 
L 1353.895352 630 
L 1348.098462 630 
L 1348.098462 630 
L 1342.301572 630 
L 1342.301572 630 
L 1336.504681 630 
L 1336.504681 630 
L 1330.707791 630 
L 1330.707791 630 
L 1324.910901 630 
L 1324.910901 630 
L 1319.114011 630 
L 1319.114011 630 
L 1313.317121 630 
L 1313.317121 630 
L 1307.52023 630 
L 1307.52023 630 
L 1301.72334 630 
L 1301.72334 630 
L 1295.92645 630 
L 1295.92645 630 
L 1290.12956 630 
L 1290.12956 630 
L 1284.33267 630 
L 1284.33267 630 
L 1278.535779 630 
L 1278.535779 630 
L 1272.738889 630 
L 1272.738889 630 
L 1266.941999 630 
L 1266.941999 630 
L 1261.145109 630 
L 1261.145109 630 
L 1255.348218 630 
L 1255.348218 630 
L 1249.551328 630 
L 1249.551328 630 
L 1243.754438 630 
L 1243.754438 630 
L 1237.957548 630 
L 1237.957548 630 
L 1232.160658 630 
L 1232.160658 630 
L 1226.363767 630 
L 1226.363767 630 
L 1220.566877 630 
L 1220.566877 630 
L 1214.769987 630 
L 1214.769987 630 
L 1208.973097 630 
L 1208.973097 630 
L 1203.176207 630 
L 1203.176207 630 
L 1197.379316 630 
L 1197.379316 630 
L 1191.582426 630 
L 1191.582426 630 
L 1185.785536 630 
L 1185.785536 630 
L 1179.988646 630 
L 1179.988646 630 
L 1174.191756 630 
L 1174.191756 630 
L 1168.394865 630 
L 1168.394865 630 
L 1162.597975 630 
L 1162.597975 630 
L 1156.801085 630 
L 1156.801085 630 
L 1151.004195 630 
L 1151.004195 630 
L 1145.207305 630 
L 1145.207305 630 
L 1139.410414 630 
L 1139.410414 630 
L 1133.613524 630 
L 1133.613524 630 
L 1127.816634 630 
L 1127.816634 630 
L 1122.019744 630 
L 1122.019744 630 
L 1116.222853 630 
L 1116.222853 630 
L 1110.425963 630 
L 1110.425963 630 
L 1104.629073 630 
L 1104.629073 630 
L 1098.832183 630 
L 1098.832183 630 
L 1093.035293 630 
L 1093.035293 630 
L 1087.238402 630 
L 1087.238402 630 
L 1081.441512 630 
L 1081.441512 630 
L 1075.644622 630 
L 1075.644622 630 
L 1069.847732 630 
L 1069.847732 630 
L 1064.050842 630 
L 1064.050842 630 
L 1058.253951 630 
L 1058.253951 630 
L 1052.457061 630 
L 1052.457061 630 
L 1046.660171 630 
L 1046.660171 630 
L 1040.863281 630 
L 1040.863281 630 
L 1035.066391 630 
L 1035.066391 630 
L 1029.2695 630 
L 1029.2695 630 
L 1023.47261 630 
L 1023.47261 630 
L 1017.67572 630 
L 1017.67572 630 
L 1011.87883 630 
L 1011.87883 630 
L 1006.08194 630 
L 1006.08194 630 
L 1000.285049 630 
L 1000.285049 630 
L 994.488159 630 
L 994.488159 630 
L 988.691269 630 
L 988.691269 630 
L 982.894379 630 
L 982.894379 630 
L 977.097489 630 
L 977.097489 630 
L 971.300598 630 
L 971.300598 630 
L 965.503708 630 
L 965.503708 630 
L 959.706818 630 
L 959.706818 630 
L 953.909928 630 
L 953.909928 630 
L 948.113037 630 
L 948.113037 630 
L 942.316147 630 
L 942.316147 630 
L 936.519257 630 
L 936.519257 630 
L 930.722367 630 
L 930.722367 630 
L 924.925477 630 
L 924.925477 630 
L 919.128586 630 
L 919.128586 630 
L 913.331696 630 
L 913.331696 630 
L 907.534806 630 
L 907.534806 630 
L 901.737916 630 
L 901.737916 630 
L 895.941026 630 
L 895.941026 630 
L 890.144135 630 
L 890.144135 630 
L 884.347245 630 
L 884.347245 630 
L 878.550355 630 
L 878.550355 630 
L 872.753465 630 
L 872.753465 630 
L 866.956575 630 
L 866.956575 630 
L 861.159684 630 
L 861.159684 630 
L 855.362794 630 
L 855.362794 630 
L 849.565904 630 
L 849.565904 630 
L 843.769014 630 
L 843.769014 630 
L 837.972124 630 
L 837.972124 630 
L 832.175233 630 
L 832.175233 630 
L 826.378343 630 
L 826.378343 630 
L 820.581453 630 
L 820.581453 630 
L 814.784563 630 
L 814.784563 630 
L 808.987672 630 
L 808.987672 630 
L 803.190782 630 
L 803.190782 630 
L 797.393892 630 
L 797.393892 630 
L 791.597002 630 
L 791.597002 630 
L 785.800112 630 
L 785.800112 630 
L 780.003221 630 
L 780.003221 630 
L 774.206331 630 
L 774.206331 630 
L 768.409441 630 
L 768.409441 630 
L 762.612551 630 
L 762.612551 630 
L 756.815661 630 
L 756.815661 630 
L 751.01877 630 
L 751.01877 630 
L 745.22188 630 
L 745.22188 630 
L 739.42499 630 
L 739.42499 630 
L 733.6281 630 
L 733.6281 630 
L 727.83121 630 
L 727.83121 630 
L 722.034319 630 
L 722.034319 630 
L 716.237429 630 
L 716.237429 630 
L 710.440539 630 
L 710.440539 630 
L 704.643649 630 
L 704.643649 630 
L 698.846759 630 
L 698.846759 630 
L 693.049868 630 
L 693.049868 630 
L 687.252978 630 
L 687.252978 630 
L 681.456088 630 
L 681.456088 630 
L 675.659198 630 
L 675.659198 630 
L 669.862307 630 
L 669.862307 630 
L 664.065417 630 
L 664.065417 630 
L 658.268527 630 
L 658.268527 630 
L 652.471637 630 
L 652.471637 630 
L 646.674747 630 
L 646.674747 630 
L 640.877856 630 
L 640.877856 630 
L 635.080966 630 
L 635.080966 630 
L 629.284076 630 
L 629.284076 630 
L 623.487186 630 
L 623.487186 630 
L 617.690296 630 
L 617.690296 630 
L 611.893405 630 
L 611.893405 630 
L 606.096515 630 
L 606.096515 630 
L 600.299625 630 
L 600.299625 630 
L 594.502735 630 
L 594.502735 630 
L 588.705845 630 
L 588.705845 630 
L 582.908954 630 
L 582.908954 630 
L 577.112064 630 
L 577.112064 630 
L 571.315174 630 
L 571.315174 630 
L 565.518284 630 
L 565.518284 630 
L 559.721394 630 
L 559.721394 630 
L 553.924503 630 
L 553.924503 630 
L 548.127613 630 
L 548.127613 630 
L 542.330723 630 
L 542.330723 630 
L 536.533833 630 
L 536.533833 630 
L 530.736943 630 
L 530.736943 630 
L 524.940052 630 
L 524.940052 630 
L 519.143162 630 
L 519.143162 630 
L 513.346272 630 
L 513.346272 630 
L 507.549382 630 
L 507.549382 630 
L 501.752491 630 
L 501.752491 630 
L 495.955601 630 
L 495.955601 630 
L 490.158711 630 
L 490.158711 630 
L 484.361821 630 
L 484.361821 630 
L 478.564931 630 
L 478.564931 630 
L 472.76804 630 
L 472.76804 630 
L 466.97115 630 
L 466.97115 630 
L 461.17426 630 
L 461.17426 630 
L 455.37737 630 
L 455.37737 630 
L 449.58048 630 
L 449.58048 630 
L 443.783589 630 
L 443.783589 630 
L 437.986699 630 
L 437.986699 630 
L 432.189809 630 
L 432.189809 630 
L 426.392919 630 
L 426.392919 630 
L 420.596029 630 
L 420.596029 630 
L 414.799138 630 
L 414.799138 630 
L 409.002248 630 
L 409.002248 630 
L 403.205358 630 
L 403.205358 630 
L 397.408468 630 
L 397.408468 630 
L 391.611578 630 
L 391.611578 630 
L 385.814687 630 
L 385.814687 630 
L 380.017797 630 
L 380.017797 630 
L 374.220907 630 
L 374.220907 630 
L 368.424017 630 
L 368.424017 630 
L 362.627126 630 
L 362.627126 630 
L 356.830236 630 
L 356.830236 630 
L 351.033346 630 
L 351.033346 630 
L 345.236456 630 
L 345.236456 630 
L 339.439566 630 
L 339.439566 630 
L 333.642675 630 
L 333.642675 630 
z
" style="fill:#808080;opacity:0.3;stroke:#000000;stroke-linejoin:miter;stroke-width:3;"/>
   </g>
   <g id="patch_4">
    <path clip-path="url(#pcd7c2ee443)" d="M 508.519416 630 
L 508.519416 578.228571 
L 513.897642 578.228571 
L 513.897642 630 
L 519.275867 630 
L 519.275867 630 
L 524.654092 630 
L 524.654092 578.228571 
L 530.032317 578.228571 
L 530.032317 526.457143 
L 535.410543 526.457143 
L 535.410543 630 
L 540.788768 630 
L 540.788768 526.457143 
L 546.166993 526.457143 
L 546.166993 578.228571 
L 551.545219 578.228571 
L 551.545219 422.914286 
L 556.923444 422.914286 
L 556.923444 526.457143 
L 562.301669 526.457143 
L 562.301669 526.457143 
L 567.679894 526.457143 
L 567.679894 215.828571 
L 573.05812 215.828571 
L 573.05812 319.371429 
L 578.436345 319.371429 
L 578.436345 526.457143 
L 583.81457 526.457143 
L 583.81457 526.457143 
L 589.192796 526.457143 
L 589.192796 474.685714 
L 594.571021 474.685714 
L 594.571021 422.914286 
L 599.949246 422.914286 
L 599.949246 319.371429 
L 605.327471 319.371429 
L 605.327471 371.142857 
L 610.705697 371.142857 
L 610.705697 164.057143 
L 616.083922 164.057143 
L 616.083922 215.828571 
L 621.462147 215.828571 
L 621.462147 215.828571 
L 626.840373 215.828571 
L 626.840373 371.142857 
L 632.218598 371.142857 
L 632.218598 164.057143 
L 637.596823 164.057143 
L 637.596823 215.828571 
L 642.975048 215.828571 
L 642.975048 371.142857 
L 648.353274 371.142857 
L 648.353274 422.914286 
L 653.731499 422.914286 
L 653.731499 112.285714 
L 659.109724 112.285714 
L 659.109724 215.828571 
L 664.487949 215.828571 
L 664.487949 422.914286 
L 669.866175 422.914286 
L 669.866175 319.371429 
L 675.2444 319.371429 
L 675.2444 215.828571 
L 680.622625 215.828571 
L 680.622625 215.828571 
L 686.000851 215.828571 
L 686.000851 526.457143 
L 691.379076 526.457143 
L 691.379076 578.228571 
L 696.757301 578.228571 
L 696.757301 526.457143 
L 702.135526 526.457143 
L 702.135526 526.457143 
L 707.513752 526.457143 
L 707.513752 578.228571 
L 712.891977 578.228571 
L 712.891977 526.457143 
L 718.270202 526.457143 
L 718.270202 526.457143 
L 723.648428 526.457143 
L 723.648428 578.228571 
L 729.026653 578.228571 
L 729.026653 578.228571 
L 734.404878 578.228571 
L 734.404878 630 
L 739.783103 630 
L 739.783103 630 
L 745.161329 630 
L 745.161329 630 
L 750.539554 630 
L 750.539554 630 
L 755.917779 630 
L 755.917779 630 
L 761.296004 630 
L 761.296004 578.228571 
L 766.67423 578.228571 
L 766.67423 630 
L 772.052455 630 
L 772.052455 578.228571 
L 777.43068 578.228571 
L 777.43068 630 
L 782.808906 630 
L 782.808906 630 
L 788.187131 630 
L 788.187131 578.228571 
L 793.565356 578.228571 
L 793.565356 578.228571 
L 798.943581 578.228571 
L 798.943581 630 
L 804.321807 630 
L 804.321807 630 
L 809.700032 630 
L 809.700032 578.228571 
L 815.078257 578.228571 
L 815.078257 578.228571 
L 820.456483 578.228571 
L 820.456483 630 
L 825.834708 630 
L 825.834708 630 
L 831.212933 630 
L 831.212933 630 
L 836.591158 630 
L 836.591158 630 
L 841.969384 630 
L 841.969384 630 
L 847.347609 630 
L 847.347609 630 
L 852.725834 630 
L 852.725834 630 
L 858.10406 630 
L 858.10406 630 
L 863.482285 630 
L 863.482285 630 
L 868.86051 630 
L 868.86051 630 
L 874.238735 630 
L 874.238735 630 
L 879.616961 630 
L 879.616961 630 
L 884.995186 630 
L 884.995186 630 
L 890.373411 630 
L 890.373411 630 
L 895.751636 630 
L 895.751636 630 
L 901.129862 630 
L 901.129862 630 
L 906.508087 630 
L 906.508087 630 
L 911.886312 630 
L 911.886312 630 
L 917.264538 630 
L 917.264538 630 
L 922.642763 630 
L 922.642763 630 
L 928.020988 630 
L 928.020988 630 
L 933.399213 630 
L 933.399213 578.228571 
L 938.777439 578.228571 
L 938.777439 630 
L 933.399213 630 
L 933.399213 630 
L 928.020988 630 
L 928.020988 630 
L 922.642763 630 
L 922.642763 630 
L 917.264538 630 
L 917.264538 630 
L 911.886312 630 
L 911.886312 630 
L 906.508087 630 
L 906.508087 630 
L 901.129862 630 
L 901.129862 630 
L 895.751636 630 
L 895.751636 630 
L 890.373411 630 
L 890.373411 630 
L 884.995186 630 
L 884.995186 630 
L 879.616961 630 
L 879.616961 630 
L 874.238735 630 
L 874.238735 630 
L 868.86051 630 
L 868.86051 630 
L 863.482285 630 
L 863.482285 630 
L 858.10406 630 
L 858.10406 630 
L 852.725834 630 
L 852.725834 630 
L 847.347609 630 
L 847.347609 630 
L 841.969384 630 
L 841.969384 630 
L 836.591158 630 
L 836.591158 630 
L 831.212933 630 
L 831.212933 630 
L 825.834708 630 
L 825.834708 630 
L 820.456483 630 
L 820.456483 630 
L 815.078257 630 
L 815.078257 630 
L 809.700032 630 
L 809.700032 630 
L 804.321807 630 
L 804.321807 630 
L 798.943581 630 
L 798.943581 630 
L 793.565356 630 
L 793.565356 630 
L 788.187131 630 
L 788.187131 630 
L 782.808906 630 
L 782.808906 630 
L 777.43068 630 
L 777.43068 630 
L 772.052455 630 
L 772.052455 630 
L 766.67423 630 
L 766.67423 630 
L 761.296004 630 
L 761.296004 630 
L 755.917779 630 
L 755.917779 630 
L 750.539554 630 
L 750.539554 630 
L 745.161329 630 
L 745.161329 630 
L 739.783103 630 
L 739.783103 630 
L 734.404878 630 
L 734.404878 630 
L 729.026653 630 
L 729.026653 630 
L 723.648428 630 
L 723.648428 630 
L 718.270202 630 
L 718.270202 630 
L 712.891977 630 
L 712.891977 630 
L 707.513752 630 
L 707.513752 630 
L 702.135526 630 
L 702.135526 630 
L 696.757301 630 
L 696.757301 630 
L 691.379076 630 
L 691.379076 630 
L 686.000851 630 
L 686.000851 630 
L 680.622625 630 
L 680.622625 630 
L 675.2444 630 
L 675.2444 630 
L 669.866175 630 
L 669.866175 630 
L 664.487949 630 
L 664.487949 630 
L 659.109724 630 
L 659.109724 630 
L 653.731499 630 
L 653.731499 630 
L 648.353274 630 
L 648.353274 630 
L 642.975048 630 
L 642.975048 630 
L 637.596823 630 
L 637.596823 630 
L 632.218598 630 
L 632.218598 630 
L 626.840373 630 
L 626.840373 630 
L 621.462147 630 
L 621.462147 630 
L 616.083922 630 
L 616.083922 630 
L 610.705697 630 
L 610.705697 630 
L 605.327471 630 
L 605.327471 630 
L 599.949246 630 
L 599.949246 630 
L 594.571021 630 
L 594.571021 630 
L 589.192796 630 
L 589.192796 630 
L 583.81457 630 
L 583.81457 630 
L 578.436345 630 
L 578.436345 630 
L 573.05812 630 
L 573.05812 630 
L 567.679894 630 
L 567.679894 630 
L 562.301669 630 
L 562.301669 630 
L 556.923444 630 
L 556.923444 630 
L 551.545219 630 
L 551.545219 630 
L 546.166993 630 
L 546.166993 630 
L 540.788768 630 
L 540.788768 630 
L 535.410543 630 
L 535.410543 630 
L 530.032317 630 
L 530.032317 630 
L 524.654092 630 
L 524.654092 630 
L 519.275867 630 
L 519.275867 630 
L 513.897642 630 
L 513.897642 630 
z
" style="fill:#ff0000;opacity:0.3;stroke:#ff0000;stroke-linejoin:miter;stroke-width:3;"/>
   </g>
   <g id="matplotlib.axis_1">
    <g id="xtick_1">
     <g id="text_1">
      <!-- 0.00 -->
      <defs>
       <path d="M 31.78125 66.40625 
Q 24.171875 66.40625 20.328125 58.90625 
Q 16.5 51.421875 16.5 36.375 
Q 16.5 21.390625 20.328125 13.890625 
Q 24.171875 6.390625 31.78125 6.390625 
Q 39.453125 6.390625 43.28125 13.890625 
Q 47.125 21.390625 47.125 36.375 
Q 47.125 51.421875 43.28125 58.90625 
Q 39.453125 66.40625 31.78125 66.40625 
z
M 31.78125 74.21875 
Q 44.046875 74.21875 50.515625 64.515625 
Q 56.984375 54.828125 56.984375 36.375 
Q 56.984375 17.96875 50.515625 8.265625 
Q 44.046875 -1.421875 31.78125 -1.421875 
Q 19.53125 -1.421875 13.0625 8.265625 
Q 6.59375 17.96875 6.59375 36.375 
Q 6.59375 54.828125 13.0625 64.515625 
Q 19.53125 74.21875 31.78125 74.21875 
z
" id="DejaVuSans-48"/>
       <path d="M 10.6875 12.40625 
L 21 12.40625 
L 21 0 
L 10.6875 0 
z
" id="DejaVuSans-46"/>
      </defs>
      <g transform="translate(258.867188 644.598438)scale(0.1 -0.1)">
       <use xlink:href="#DejaVuSans-48"/>
       <use x="63.623047" xlink:href="#DejaVuSans-46"/>
       <use x="95.410156" xlink:href="#DejaVuSans-48"/>
       <use x="159.033203" xlink:href="#DejaVuSans-48"/>
      </g>
     </g>
    </g>
    <g id="xtick_2">
     <g id="text_2">
      <!-- 0.05 -->
      <defs>
       <path d="M 10.796875 72.90625 
L 49.515625 72.90625 
L 49.515625 64.59375 
L 19.828125 64.59375 
L 19.828125 46.734375 
Q 21.96875 47.46875 24.109375 47.828125 
Q 26.265625 48.1875 28.421875 48.1875 
Q 40.625 48.1875 47.75 41.5 
Q 54.890625 34.8125 54.890625 23.390625 
Q 54.890625 11.625 47.5625 5.09375 
Q 40.234375 -1.421875 26.90625 -1.421875 
Q 22.3125 -1.421875 17.546875 -0.640625 
Q 12.796875 0.140625 7.71875 1.703125 
L 7.71875 11.625 
Q 12.109375 9.234375 16.796875 8.0625 
Q 21.484375 6.890625 26.703125 6.890625 
Q 35.15625 6.890625 40.078125 11.328125 
Q 45.015625 15.765625 45.015625 23.390625 
Q 45.015625 31 40.078125 35.4375 
Q 35.15625 39.890625 26.703125 39.890625 
Q 22.75 39.890625 18.8125 39.015625 
Q 14.890625 38.140625 10.796875 36.28125 
z
" id="DejaVuSans-53"/>
      </defs>
      <g transform="translate(468.117188 644.598438)scale(0.1 -0.1)">
       <use xlink:href="#DejaVuSans-48"/>
       <use x="63.623047" xlink:href="#DejaVuSans-46"/>
       <use x="95.410156" xlink:href="#DejaVuSans-48"/>
       <use x="159.033203" xlink:href="#DejaVuSans-53"/>
      </g>
     </g>
    </g>
    <g id="xtick_3">
     <g id="text_3">
      <!-- 0.10 -->
      <defs>
       <path d="M 12.40625 8.296875 
L 28.515625 8.296875 
L 28.515625 63.921875 
L 10.984375 60.40625 
L 10.984375 69.390625 
L 28.421875 72.90625 
L 38.28125 72.90625 
L 38.28125 8.296875 
L 54.390625 8.296875 
L 54.390625 0 
L 12.40625 0 
z
" id="DejaVuSans-49"/>
      </defs>
      <g transform="translate(677.367188 644.598438)scale(0.1 -0.1)">
       <use xlink:href="#DejaVuSans-48"/>
       <use x="63.623047" xlink:href="#DejaVuSans-46"/>
       <use x="95.410156" xlink:href="#DejaVuSans-49"/>
       <use x="159.033203" xlink:href="#DejaVuSans-48"/>
      </g>
     </g>
    </g>
    <g id="xtick_4">
     <g id="text_4">
      <!-- 0.15 -->
      <g transform="translate(886.617188 644.598438)scale(0.1 -0.1)">
       <use xlink:href="#DejaVuSans-48"/>
       <use x="63.623047" xlink:href="#DejaVuSans-46"/>
       <use x="95.410156" xlink:href="#DejaVuSans-49"/>
       <use x="159.033203" xlink:href="#DejaVuSans-53"/>
      </g>
     </g>
    </g>
    <g id="xtick_5">
     <g id="text_5">
      <!-- 0.20 -->
      <defs>
       <path d="M 19.1875 8.296875 
L 53.609375 8.296875 
L 53.609375 0 
L 7.328125 0 
L 7.328125 8.296875 
Q 12.9375 14.109375 22.625 23.890625 
Q 32.328125 33.6875 34.8125 36.53125 
Q 39.546875 41.84375 41.421875 45.53125 
Q 43.3125 49.21875 43.3125 52.78125 
Q 43.3125 58.59375 39.234375 62.25 
Q 35.15625 65.921875 28.609375 65.921875 
Q 23.96875 65.921875 18.8125 64.3125 
Q 13.671875 62.703125 7.8125 59.421875 
L 7.8125 69.390625 
Q 13.765625 71.78125 18.9375 73 
Q 24.125 74.21875 28.421875 74.21875 
Q 39.75 74.21875 46.484375 68.546875 
Q 53.21875 62.890625 53.21875 53.421875 
Q 53.21875 48.921875 51.53125 44.890625 
Q 49.859375 40.875 45.40625 35.40625 
Q 44.1875 33.984375 37.640625 27.21875 
Q 31.109375 20.453125 19.1875 8.296875 
z
" id="DejaVuSans-50"/>
      </defs>
      <g transform="translate(1095.867188 644.598438)scale(0.1 -0.1)">
       <use xlink:href="#DejaVuSans-48"/>
       <use x="63.623047" xlink:href="#DejaVuSans-46"/>
       <use x="95.410156" xlink:href="#DejaVuSans-50"/>
       <use x="159.033203" xlink:href="#DejaVuSans-48"/>
      </g>
     </g>
    </g>
    <g id="xtick_6">
     <g id="text_6">
      <!-- 0.25 -->
      <g transform="translate(1305.117188 644.598438)scale(0.1 -0.1)">
       <use xlink:href="#DejaVuSans-48"/>
       <use x="63.623047" xlink:href="#DejaVuSans-46"/>
       <use x="95.410156" xlink:href="#DejaVuSans-50"/>
       <use x="159.033203" xlink:href="#DejaVuSans-53"/>
      </g>
     </g>
    </g>
    <g id="xtick_7">
     <g id="text_7">
      <!-- 0.30 -->
      <defs>
       <path d="M 40.578125 39.3125 
Q 47.65625 37.796875 51.625 33 
Q 55.609375 28.21875 55.609375 21.1875 
Q 55.609375 10.40625 48.1875 4.484375 
Q 40.765625 -1.421875 27.09375 -1.421875 
Q 22.515625 -1.421875 17.65625 -0.515625 
Q 12.796875 0.390625 7.625 2.203125 
L 7.625 11.71875 
Q 11.71875 9.328125 16.59375 8.109375 
Q 21.484375 6.890625 26.8125 6.890625 
Q 36.078125 6.890625 40.9375 10.546875 
Q 45.796875 14.203125 45.796875 21.1875 
Q 45.796875 27.640625 41.28125 31.265625 
Q 36.765625 34.90625 28.71875 34.90625 
L 20.21875 34.90625 
L 20.21875 43.015625 
L 29.109375 43.015625 
Q 36.375 43.015625 40.234375 45.921875 
Q 44.09375 48.828125 44.09375 54.296875 
Q 44.09375 59.90625 40.109375 62.90625 
Q 36.140625 65.921875 28.71875 65.921875 
Q 24.65625 65.921875 20.015625 65.03125 
Q 15.375 64.15625 9.8125 62.3125 
L 9.8125 71.09375 
Q 15.4375 72.65625 20.34375 73.4375 
Q 25.25 74.21875 29.59375 74.21875 
Q 40.828125 74.21875 47.359375 69.109375 
Q 53.90625 64.015625 53.90625 55.328125 
Q 53.90625 49.265625 50.4375 45.09375 
Q 46.96875 40.921875 40.578125 39.3125 
z
" id="DejaVuSans-51"/>
      </defs>
      <g transform="translate(1514.367188 644.598438)scale(0.1 -0.1)">
       <use xlink:href="#DejaVuSans-48"/>
       <use x="63.623047" xlink:href="#DejaVuSans-46"/>
       <use x="95.410156" xlink:href="#DejaVuSans-51"/>
       <use x="159.033203" xlink:href="#DejaVuSans-48"/>
      </g>
     </g>
    </g>
    <g id="xtick_8">
     <g id="text_8">
      <!-- 0.35 -->
      <g transform="translate(1723.617188 644.598438)scale(0.1 -0.1)">
       <use xlink:href="#DejaVuSans-48"/>
       <use x="63.623047" xlink:href="#DejaVuSans-46"/>
       <use x="95.410156" xlink:href="#DejaVuSans-51"/>
       <use x="159.033203" xlink:href="#DejaVuSans-53"/>
      </g>
     </g>
    </g>
    <g id="xtick_9">
     <g id="text_9">
      <!-- 0.40 -->
      <defs>
       <path d="M 37.796875 64.3125 
L 12.890625 25.390625 
L 37.796875 25.390625 
z
M 35.203125 72.90625 
L 47.609375 72.90625 
L 47.609375 25.390625 
L 58.015625 25.390625 
L 58.015625 17.1875 
L 47.609375 17.1875 
L 47.609375 0 
L 37.796875 0 
L 37.796875 17.1875 
L 4.890625 17.1875 
L 4.890625 26.703125 
z
" id="DejaVuSans-52"/>
      </defs>
      <g transform="translate(1932.867188 644.598438)scale(0.1 -0.1)">
       <use xlink:href="#DejaVuSans-48"/>
       <use x="63.623047" xlink:href="#DejaVuSans-46"/>
       <use x="95.410156" xlink:href="#DejaVuSans-52"/>
       <use x="159.033203" xlink:href="#DejaVuSans-48"/>
      </g>
     </g>
    </g>
    <g id="text_10">
     <!-- Lengths Counts -->
     <defs>
      <path d="M 9.8125 72.90625 
L 19.671875 72.90625 
L 19.671875 8.296875 
L 55.171875 8.296875 
L 55.171875 0 
L 9.8125 0 
z
" id="DejaVuSans-76"/>
      <path d="M 56.203125 29.59375 
L 56.203125 25.203125 
L 14.890625 25.203125 
Q 15.484375 15.921875 20.484375 11.0625 
Q 25.484375 6.203125 34.421875 6.203125 
Q 39.59375 6.203125 44.453125 7.46875 
Q 49.3125 8.734375 54.109375 11.28125 
L 54.109375 2.78125 
Q 49.265625 0.734375 44.1875 -0.34375 
Q 39.109375 -1.421875 33.890625 -1.421875 
Q 20.796875 -1.421875 13.15625 6.1875 
Q 5.515625 13.8125 5.515625 26.8125 
Q 5.515625 40.234375 12.765625 48.109375 
Q 20.015625 56 32.328125 56 
Q 43.359375 56 49.78125 48.890625 
Q 56.203125 41.796875 56.203125 29.59375 
z
M 47.21875 32.234375 
Q 47.125 39.59375 43.09375 43.984375 
Q 39.0625 48.390625 32.421875 48.390625 
Q 24.90625 48.390625 20.390625 44.140625 
Q 15.875 39.890625 15.1875 32.171875 
z
" id="DejaVuSans-101"/>
      <path d="M 54.890625 33.015625 
L 54.890625 0 
L 45.90625 0 
L 45.90625 32.71875 
Q 45.90625 40.484375 42.875 44.328125 
Q 39.84375 48.1875 33.796875 48.1875 
Q 26.515625 48.1875 22.3125 43.546875 
Q 18.109375 38.921875 18.109375 30.90625 
L 18.109375 0 
L 9.078125 0 
L 9.078125 54.6875 
L 18.109375 54.6875 
L 18.109375 46.1875 
Q 21.34375 51.125 25.703125 53.5625 
Q 30.078125 56 35.796875 56 
Q 45.21875 56 50.046875 50.171875 
Q 54.890625 44.34375 54.890625 33.015625 
z
" id="DejaVuSans-110"/>
      <path d="M 45.40625 27.984375 
Q 45.40625 37.75 41.375 43.109375 
Q 37.359375 48.484375 30.078125 48.484375 
Q 22.859375 48.484375 18.828125 43.109375 
Q 14.796875 37.75 14.796875 27.984375 
Q 14.796875 18.265625 18.828125 12.890625 
Q 22.859375 7.515625 30.078125 7.515625 
Q 37.359375 7.515625 41.375 12.890625 
Q 45.40625 18.265625 45.40625 27.984375 
z
M 54.390625 6.78125 
Q 54.390625 -7.171875 48.1875 -13.984375 
Q 42 -20.796875 29.203125 -20.796875 
Q 24.46875 -20.796875 20.265625 -20.09375 
Q 16.0625 -19.390625 12.109375 -17.921875 
L 12.109375 -9.1875 
Q 16.0625 -11.328125 19.921875 -12.34375 
Q 23.78125 -13.375 27.78125 -13.375 
Q 36.625 -13.375 41.015625 -8.765625 
Q 45.40625 -4.15625 45.40625 5.171875 
L 45.40625 9.625 
Q 42.625 4.78125 38.28125 2.390625 
Q 33.9375 0 27.875 0 
Q 17.828125 0 11.671875 7.65625 
Q 5.515625 15.328125 5.515625 27.984375 
Q 5.515625 40.671875 11.671875 48.328125 
Q 17.828125 56 27.875 56 
Q 33.9375 56 38.28125 53.609375 
Q 42.625 51.21875 45.40625 46.390625 
L 45.40625 54.6875 
L 54.390625 54.6875 
z
" id="DejaVuSans-103"/>
      <path d="M 18.3125 70.21875 
L 18.3125 54.6875 
L 36.8125 54.6875 
L 36.8125 47.703125 
L 18.3125 47.703125 
L 18.3125 18.015625 
Q 18.3125 11.328125 20.140625 9.421875 
Q 21.96875 7.515625 27.59375 7.515625 
L 36.8125 7.515625 
L 36.8125 0 
L 27.59375 0 
Q 17.1875 0 13.234375 3.875 
Q 9.28125 7.765625 9.28125 18.015625 
L 9.28125 47.703125 
L 2.6875 47.703125 
L 2.6875 54.6875 
L 9.28125 54.6875 
L 9.28125 70.21875 
z
" id="DejaVuSans-116"/>
      <path d="M 54.890625 33.015625 
L 54.890625 0 
L 45.90625 0 
L 45.90625 32.71875 
Q 45.90625 40.484375 42.875 44.328125 
Q 39.84375 48.1875 33.796875 48.1875 
Q 26.515625 48.1875 22.3125 43.546875 
Q 18.109375 38.921875 18.109375 30.90625 
L 18.109375 0 
L 9.078125 0 
L 9.078125 75.984375 
L 18.109375 75.984375 
L 18.109375 46.1875 
Q 21.34375 51.125 25.703125 53.5625 
Q 30.078125 56 35.796875 56 
Q 45.21875 56 50.046875 50.171875 
Q 54.890625 44.34375 54.890625 33.015625 
z
" id="DejaVuSans-104"/>
      <path d="M 44.28125 53.078125 
L 44.28125 44.578125 
Q 40.484375 46.53125 36.375 47.5 
Q 32.28125 48.484375 27.875 48.484375 
Q 21.1875 48.484375 17.84375 46.4375 
Q 14.5 44.390625 14.5 40.28125 
Q 14.5 37.15625 16.890625 35.375 
Q 19.28125 33.59375 26.515625 31.984375 
L 29.59375 31.296875 
Q 39.15625 29.25 43.1875 25.515625 
Q 47.21875 21.78125 47.21875 15.09375 
Q 47.21875 7.46875 41.1875 3.015625 
Q 35.15625 -1.421875 24.609375 -1.421875 
Q 20.21875 -1.421875 15.453125 -0.5625 
Q 10.6875 0.296875 5.421875 2 
L 5.421875 11.28125 
Q 10.40625 8.6875 15.234375 7.390625 
Q 20.0625 6.109375 24.8125 6.109375 
Q 31.15625 6.109375 34.5625 8.28125 
Q 37.984375 10.453125 37.984375 14.40625 
Q 37.984375 18.0625 35.515625 20.015625 
Q 33.0625 21.96875 24.703125 23.78125 
L 21.578125 24.515625 
Q 13.234375 26.265625 9.515625 29.90625 
Q 5.8125 33.546875 5.8125 39.890625 
Q 5.8125 47.609375 11.28125 51.796875 
Q 16.75 56 26.8125 56 
Q 31.78125 56 36.171875 55.265625 
Q 40.578125 54.546875 44.28125 53.078125 
z
" id="DejaVuSans-115"/>
      <path id="DejaVuSans-32"/>
      <path d="M 64.40625 67.28125 
L 64.40625 56.890625 
Q 59.421875 61.53125 53.78125 63.8125 
Q 48.140625 66.109375 41.796875 66.109375 
Q 29.296875 66.109375 22.65625 58.46875 
Q 16.015625 50.828125 16.015625 36.375 
Q 16.015625 21.96875 22.65625 14.328125 
Q 29.296875 6.6875 41.796875 6.6875 
Q 48.140625 6.6875 53.78125 8.984375 
Q 59.421875 11.28125 64.40625 15.921875 
L 64.40625 5.609375 
Q 59.234375 2.09375 53.4375 0.328125 
Q 47.65625 -1.421875 41.21875 -1.421875 
Q 24.65625 -1.421875 15.125 8.703125 
Q 5.609375 18.84375 5.609375 36.375 
Q 5.609375 53.953125 15.125 64.078125 
Q 24.65625 74.21875 41.21875 74.21875 
Q 47.75 74.21875 53.53125 72.484375 
Q 59.328125 70.75 64.40625 67.28125 
z
" id="DejaVuSans-67"/>
      <path d="M 30.609375 48.390625 
Q 23.390625 48.390625 19.1875 42.75 
Q 14.984375 37.109375 14.984375 27.296875 
Q 14.984375 17.484375 19.15625 11.84375 
Q 23.34375 6.203125 30.609375 6.203125 
Q 37.796875 6.203125 41.984375 11.859375 
Q 46.1875 17.53125 46.1875 27.296875 
Q 46.1875 37.015625 41.984375 42.703125 
Q 37.796875 48.390625 30.609375 48.390625 
z
M 30.609375 56 
Q 42.328125 56 49.015625 48.375 
Q 55.71875 40.765625 55.71875 27.296875 
Q 55.71875 13.875 49.015625 6.21875 
Q 42.328125 -1.421875 30.609375 -1.421875 
Q 18.84375 -1.421875 12.171875 6.21875 
Q 5.515625 13.875 5.515625 27.296875 
Q 5.515625 40.765625 12.171875 48.375 
Q 18.84375 56 30.609375 56 
z
" id="DejaVuSans-111"/>
      <path d="M 8.5 21.578125 
L 8.5 54.6875 
L 17.484375 54.6875 
L 17.484375 21.921875 
Q 17.484375 14.15625 20.5 10.265625 
Q 23.53125 6.390625 29.59375 6.390625 
Q 36.859375 6.390625 41.078125 11.03125 
Q 45.3125 15.671875 45.3125 23.6875 
L 45.3125 54.6875 
L 54.296875 54.6875 
L 54.296875 0 
L 45.3125 0 
L 45.3125 8.40625 
Q 42.046875 3.421875 37.71875 1 
Q 33.40625 -1.421875 27.6875 -1.421875 
Q 18.265625 -1.421875 13.375 4.4375 
Q 8.5 10.296875 8.5 21.578125 
z
M 31.109375 56 
z
" id="DejaVuSans-117"/>
     </defs>
     <g transform="translate(1068.10625 658.276562)scale(0.1 -0.1)">
      <use xlink:href="#DejaVuSans-76"/>
      <use x="53.962891" xlink:href="#DejaVuSans-101"/>
      <use x="115.486328" xlink:href="#DejaVuSans-110"/>
      <use x="178.865234" xlink:href="#DejaVuSans-103"/>
      <use x="242.341797" xlink:href="#DejaVuSans-116"/>
      <use x="281.550781" xlink:href="#DejaVuSans-104"/>
      <use x="344.929688" xlink:href="#DejaVuSans-115"/>
      <use x="397.029297" xlink:href="#DejaVuSans-32"/>
      <use x="428.816406" xlink:href="#DejaVuSans-67"/>
      <use x="498.640625" xlink:href="#DejaVuSans-111"/>
      <use x="559.822266" xlink:href="#DejaVuSans-117"/>
      <use x="623.201172" xlink:href="#DejaVuSans-110"/>
      <use x="686.580078" xlink:href="#DejaVuSans-116"/>
      <use x="725.789062" xlink:href="#DejaVuSans-115"/>
     </g>
    </g>
   </g>
   <g id="matplotlib.axis_2">
    <g id="ytick_1">
     <g id="text_11">
      <!-- 0 -->
      <g transform="translate(256.6375 633.799219)scale(0.1 -0.1)">
       <use xlink:href="#DejaVuSans-48"/>
      </g>
     </g>
    </g>
    <g id="ytick_2">
     <g id="text_12">
      <!-- 10 -->
      <g transform="translate(250.275 519.363363)scale(0.1 -0.1)">
       <use xlink:href="#DejaVuSans-49"/>
       <use x="63.623047" xlink:href="#DejaVuSans-48"/>
      </g>
     </g>
    </g>
    <g id="ytick_3">
     <g id="text_13">
      <!-- 20 -->
      <g transform="translate(250.275 404.927506)scale(0.1 -0.1)">
       <use xlink:href="#DejaVuSans-50"/>
       <use x="63.623047" xlink:href="#DejaVuSans-48"/>
      </g>
     </g>
    </g>
    <g id="ytick_4">
     <g id="text_14">
      <!-- 30 -->
      <g transform="translate(250.275 290.49165)scale(0.1 -0.1)">
       <use xlink:href="#DejaVuSans-51"/>
       <use x="63.623047" xlink:href="#DejaVuSans-48"/>
      </g>
     </g>
    </g>
    <g id="ytick_5">
     <g id="text_15">
      <!-- 40 -->
      <g transform="translate(250.275 176.055794)scale(0.1 -0.1)">
       <use xlink:href="#DejaVuSans-52"/>
       <use x="63.623047" xlink:href="#DejaVuSans-48"/>
      </g>
     </g>
    </g>
    <g id="text_16">
     <!-- Probability -->
     <defs>
      <path d="M 19.671875 64.796875 
L 19.671875 37.40625 
L 32.078125 37.40625 
Q 38.96875 37.40625 42.71875 40.96875 
Q 46.484375 44.53125 46.484375 51.125 
Q 46.484375 57.671875 42.71875 61.234375 
Q 38.96875 64.796875 32.078125 64.796875 
z
M 9.8125 72.90625 
L 32.078125 72.90625 
Q 44.34375 72.90625 50.609375 67.359375 
Q 56.890625 61.8125 56.890625 51.125 
Q 56.890625 40.328125 50.609375 34.8125 
Q 44.34375 29.296875 32.078125 29.296875 
L 19.671875 29.296875 
L 19.671875 0 
L 9.8125 0 
z
" id="DejaVuSans-80"/>
      <path d="M 41.109375 46.296875 
Q 39.59375 47.171875 37.8125 47.578125 
Q 36.03125 48 33.890625 48 
Q 26.265625 48 22.1875 43.046875 
Q 18.109375 38.09375 18.109375 28.8125 
L 18.109375 0 
L 9.078125 0 
L 9.078125 54.6875 
L 18.109375 54.6875 
L 18.109375 46.1875 
Q 20.953125 51.171875 25.484375 53.578125 
Q 30.03125 56 36.53125 56 
Q 37.453125 56 38.578125 55.875 
Q 39.703125 55.765625 41.0625 55.515625 
z
" id="DejaVuSans-114"/>
      <path d="M 48.6875 27.296875 
Q 48.6875 37.203125 44.609375 42.84375 
Q 40.53125 48.484375 33.40625 48.484375 
Q 26.265625 48.484375 22.1875 42.84375 
Q 18.109375 37.203125 18.109375 27.296875 
Q 18.109375 17.390625 22.1875 11.75 
Q 26.265625 6.109375 33.40625 6.109375 
Q 40.53125 6.109375 44.609375 11.75 
Q 48.6875 17.390625 48.6875 27.296875 
z
M 18.109375 46.390625 
Q 20.953125 51.265625 25.265625 53.625 
Q 29.59375 56 35.59375 56 
Q 45.5625 56 51.78125 48.09375 
Q 58.015625 40.1875 58.015625 27.296875 
Q 58.015625 14.40625 51.78125 6.484375 
Q 45.5625 -1.421875 35.59375 -1.421875 
Q 29.59375 -1.421875 25.265625 0.953125 
Q 20.953125 3.328125 18.109375 8.203125 
L 18.109375 0 
L 9.078125 0 
L 9.078125 75.984375 
L 18.109375 75.984375 
z
" id="DejaVuSans-98"/>
      <path d="M 34.28125 27.484375 
Q 23.390625 27.484375 19.1875 25 
Q 14.984375 22.515625 14.984375 16.5 
Q 14.984375 11.71875 18.140625 8.90625 
Q 21.296875 6.109375 26.703125 6.109375 
Q 34.1875 6.109375 38.703125 11.40625 
Q 43.21875 16.703125 43.21875 25.484375 
L 43.21875 27.484375 
z
M 52.203125 31.203125 
L 52.203125 0 
L 43.21875 0 
L 43.21875 8.296875 
Q 40.140625 3.328125 35.546875 0.953125 
Q 30.953125 -1.421875 24.3125 -1.421875 
Q 15.921875 -1.421875 10.953125 3.296875 
Q 6 8.015625 6 15.921875 
Q 6 25.140625 12.171875 29.828125 
Q 18.359375 34.515625 30.609375 34.515625 
L 43.21875 34.515625 
L 43.21875 35.40625 
Q 43.21875 41.609375 39.140625 45 
Q 35.0625 48.390625 27.6875 48.390625 
Q 23 48.390625 18.546875 47.265625 
Q 14.109375 46.140625 10.015625 43.890625 
L 10.015625 52.203125 
Q 14.9375 54.109375 19.578125 55.046875 
Q 24.21875 56 28.609375 56 
Q 40.484375 56 46.34375 49.84375 
Q 52.203125 43.703125 52.203125 31.203125 
z
" id="DejaVuSans-97"/>
      <path d="M 9.421875 54.6875 
L 18.40625 54.6875 
L 18.40625 0 
L 9.421875 0 
z
M 9.421875 75.984375 
L 18.40625 75.984375 
L 18.40625 64.59375 
L 9.421875 64.59375 
z
" id="DejaVuSans-105"/>
      <path d="M 9.421875 75.984375 
L 18.40625 75.984375 
L 18.40625 0 
L 9.421875 0 
z
" id="DejaVuSans-108"/>
      <path d="M 32.171875 -5.078125 
Q 28.375 -14.84375 24.75 -17.8125 
Q 21.140625 -20.796875 15.09375 -20.796875 
L 7.90625 -20.796875 
L 7.90625 -13.28125 
L 13.1875 -13.28125 
Q 16.890625 -13.28125 18.9375 -11.515625 
Q 21 -9.765625 23.484375 -3.21875 
L 25.09375 0.875 
L 2.984375 54.6875 
L 12.5 54.6875 
L 29.59375 11.921875 
L 46.6875 54.6875 
L 56.203125 54.6875 
z
" id="DejaVuSans-121"/>
     </defs>
     <g transform="translate(244.195312 384.628906)rotate(-90)scale(0.1 -0.1)">
      <use xlink:href="#DejaVuSans-80"/>
      <use x="58.552734" xlink:href="#DejaVuSans-114"/>
      <use x="97.416016" xlink:href="#DejaVuSans-111"/>
      <use x="158.597656" xlink:href="#DejaVuSans-98"/>
      <use x="222.074219" xlink:href="#DejaVuSans-97"/>
      <use x="283.353516" xlink:href="#DejaVuSans-98"/>
      <use x="346.830078" xlink:href="#DejaVuSans-105"/>
      <use x="374.613281" xlink:href="#DejaVuSans-108"/>
      <use x="402.396484" xlink:href="#DejaVuSans-105"/>
      <use x="430.179688" xlink:href="#DejaVuSans-116"/>
      <use x="469.388672" xlink:href="#DejaVuSans-121"/>
     </g>
    </g>
   </g>
   <g id="line2d_1">
    <path clip-path="url(#pcd7c2ee443)" d="M 327.845785 628.872542 
L 329.295733 628.401653 
L 330.74568 627.778248 
L 332.195628 626.96839 
L 333.645575 625.934903 
L 335.095523 624.638024 
L 336.54547 623.036237 
L 337.995418 621.08727 
L 339.445365 618.749192 
L 340.895313 615.981587 
L 342.34526 612.746736 
L 343.795208 609.010767 
L 345.245156 604.744717 
L 346.695103 599.925468 
L 348.145051 594.536527 
L 349.594998 588.568608 
L 351.044946 582.020024 
L 352.494893 574.896865 
L 355.394788 558.989711 
L 358.294683 541.045726 
L 361.194578 521.367932 
L 365.544421 489.457827 
L 378.593949 390.746458 
L 381.493844 370.933993 
L 384.393739 352.622639 
L 387.293634 336.034707 
L 390.193529 321.328861 
L 393.093424 308.603712 
L 394.543371 302.999651 
L 395.993319 297.90345 
L 397.443266 293.313257 
L 398.893214 289.224719 
L 400.343162 285.631215 
L 401.793109 282.524096 
L 403.243057 279.892914 
L 404.693004 277.725649 
L 406.142952 276.008922 
L 407.592899 274.728199 
L 409.042847 273.867989 
L 410.492794 273.412019 
L 411.942742 273.343405 
L 413.392689 273.644807 
L 414.842637 274.298573 
L 416.292584 275.286864 
L 417.742532 276.591776 
L 419.192479 278.195443 
L 420.642427 280.080129 
L 422.092374 282.228314 
L 423.542322 284.622761 
L 426.442217 290.083297 
L 429.342112 296.331721 
L 432.242007 303.245694 
L 435.141902 310.711427 
L 439.491745 322.71796 
L 443.841587 335.417789 
L 451.091325 357.414465 
L 462.690905 392.750793 
L 468.490695 409.789272 
L 474.290485 426.128117 
L 478.640328 437.846213 
L 482.99017 449.066583 
L 487.340013 459.769249 
L 491.689856 469.944859 
L 496.039698 479.592539 
L 500.389541 488.718058 
L 504.739383 497.332301 
L 509.089226 505.449992 
L 513.439069 513.088649 
L 517.788911 520.267728 
L 522.138754 527.007934 
L 526.488596 533.330668 
L 530.838439 539.257591 
L 535.188281 544.810284 
L 539.538124 550.009986 
L 543.887967 554.877398 
L 548.237809 559.432538 
L 552.587652 563.694642 
L 556.937494 567.682097 
L 561.287337 571.412397 
L 565.637179 574.90213 
L 569.987022 578.166973 
L 575.786812 582.195682 
L 581.586602 585.883365 
L 587.386392 589.259972 
L 593.186182 592.352941 
L 598.985973 595.187351 
L 604.785763 597.786088 
L 610.585553 600.170008 
L 617.83529 602.876582 
L 625.085028 605.310399 
L 632.334766 607.501064 
L 639.584503 609.474843 
L 648.284188 611.589698 
L 656.983874 613.460946 
L 665.683559 615.119167 
L 675.833191 616.819668 
L 685.982824 618.30224 
L 697.582404 619.768807 
L 710.631932 621.173614 
L 725.131407 622.482321 
L 741.08083 623.672128 
L 758.4802 624.73082 
L 777.329518 625.655091 
L 799.078731 626.498516 
L 825.177787 627.273085 
L 855.626685 627.939347 
L 891.875373 628.501505 
L 936.823746 628.969574 
L 996.271595 629.352215 
L 1078.918604 629.642471 
L 1205.064038 629.841394 
L 1441.405485 629.956383 
L 1944.537276 629.994671 
L 1944.537276 629.994671 
" style="fill:none;stroke:#1f77b4;stroke-linecap:square;stroke-width:5;"/>
   </g>
   <g id="line2d_2">
    <path clip-path="url(#pcd7c2ee443)" d="M 366.613161 630 
L 366.613161 521.28 
" style="fill:none;stroke:#ff0000;stroke-dasharray:3,4.95;stroke-dashoffset:0;stroke-opacity:0.9;stroke-width:3;"/>
   </g>
   <g id="line2d_3">
    <path clip-path="url(#pcd7c2ee443)" d="M 716.119751 630 
L 716.119751 521.28 
" style="fill:none;stroke:#ff0000;stroke-dasharray:3,4.95;stroke-dashoffset:0;stroke-opacity:0.9;stroke-width:3;"/>
   </g>
   <g id="line2d_4">
    <path clip-path="url(#pcd7c2ee443)" d="M 348.635604 630 
L 348.635604 521.28 
" style="fill:none;stroke:#ff0000;stroke-dasharray:3,4.95;stroke-dashoffset:0;stroke-opacity:0.9;stroke-width:3;"/>
   </g>
   <g id="line2d_5">
    <path clip-path="url(#pcd7c2ee443)" d="M 884.567263 630 
L 884.567263 521.28 
" style="fill:none;stroke:#ff0000;stroke-dasharray:3,4.95;stroke-dashoffset:0;stroke-opacity:0.9;stroke-width:3;"/>
   </g>
   <g id="patch_5">
    <path d="M 270 630 
L 270 86.4 
" style="fill:none;stroke:#000000;stroke-linecap:square;stroke-linejoin:miter;stroke-width:0.8;"/>
   </g>
   <g id="patch_6">
    <path d="M 1944 630 
L 1944 86.4 
" style="fill:none;stroke:#000000;stroke-linecap:square;stroke-linejoin:miter;stroke-width:0.8;"/>
   </g>
   <g id="patch_7">
    <path d="M 270 630 
L 1944 630 
" style="fill:none;stroke:#000000;stroke-linecap:square;stroke-linejoin:miter;stroke-width:0.8;"/>
   </g>
   <g id="patch_8">
    <path d="M 270 86.4 
L 1944 86.4 
" style="fill:none;stroke:#000000;stroke-linecap:square;stroke-linejoin:miter;stroke-width:0.8;"/>
   </g>
   <g id="text_17">
    <!-- 5th -->
    <g style="fill:#ff0000;opacity:0.8;" transform="translate(366.613161 538.451315)scale(0.2 -0.2)">
     <use xlink:href="#DejaVuSans-53"/>
     <use x="63.623047" xlink:href="#DejaVuSans-116"/>
     <use x="102.832031" xlink:href="#DejaVuSans-104"/>
    </g>
   </g>
   <g id="text_18">
    <!-- 95th -->
    <defs>
     <path d="M 10.984375 1.515625 
L 10.984375 10.5 
Q 14.703125 8.734375 18.5 7.8125 
Q 22.3125 6.890625 25.984375 6.890625 
Q 35.75 6.890625 40.890625 13.453125 
Q 46.046875 20.015625 46.78125 33.40625 
Q 43.953125 29.203125 39.59375 26.953125 
Q 35.25 24.703125 29.984375 24.703125 
Q 19.046875 24.703125 12.671875 31.3125 
Q 6.296875 37.9375 6.296875 49.421875 
Q 6.296875 60.640625 12.9375 67.421875 
Q 19.578125 74.21875 30.609375 74.21875 
Q 43.265625 74.21875 49.921875 64.515625 
Q 56.59375 54.828125 56.59375 36.375 
Q 56.59375 19.140625 48.40625 8.859375 
Q 40.234375 -1.421875 26.421875 -1.421875 
Q 22.703125 -1.421875 18.890625 -0.6875 
Q 15.09375 0.046875 10.984375 1.515625 
z
M 30.609375 32.421875 
Q 37.25 32.421875 41.125 36.953125 
Q 45.015625 41.5 45.015625 49.421875 
Q 45.015625 57.28125 41.125 61.84375 
Q 37.25 66.40625 30.609375 66.40625 
Q 23.96875 66.40625 20.09375 61.84375 
Q 16.21875 57.28125 16.21875 49.421875 
Q 16.21875 41.5 20.09375 36.953125 
Q 23.96875 32.421875 30.609375 32.421875 
z
" id="DejaVuSans-57"/>
    </defs>
    <g style="fill:#ff0000;opacity:0.8;" transform="translate(716.119751 538.451315)scale(0.2 -0.2)">
     <use xlink:href="#DejaVuSans-57"/>
     <use x="63.623047" xlink:href="#DejaVuSans-53"/>
     <use x="127.246094" xlink:href="#DejaVuSans-116"/>
     <use x="166.455078" xlink:href="#DejaVuSans-104"/>
    </g>
   </g>
   <g id="text_19">
    <!-- 1st -->
    <g style="fill:#ff0000;opacity:0.8;" transform="translate(348.635604 538.451315)scale(0.2 -0.2)">
     <use xlink:href="#DejaVuSans-49"/>
     <use x="63.623047" xlink:href="#DejaVuSans-115"/>
     <use x="115.722656" xlink:href="#DejaVuSans-116"/>
    </g>
   </g>
   <g id="text_20">
    <!-- 99th -->
    <g style="fill:#ff0000;opacity:0.8;" transform="translate(884.567263 538.451315)scale(0.2 -0.2)">
     <use xlink:href="#DejaVuSans-57"/>
     <use x="63.623047" xlink:href="#DejaVuSans-57"/>
     <use x="127.246094" xlink:href="#DejaVuSans-116"/>
     <use x="166.455078" xlink:href="#DejaVuSans-104"/>
    </g>
   </g>
   <g id="text_21">
    <!-- max_extreme1=0.107,max_extreme2=0.147 -->
    <defs>
     <path d="M 52 44.1875 
Q 55.375 50.25 60.0625 53.125 
Q 64.75 56 71.09375 56 
Q 79.640625 56 84.28125 50.015625 
Q 88.921875 44.046875 88.921875 33.015625 
L 88.921875 0 
L 79.890625 0 
L 79.890625 32.71875 
Q 79.890625 40.578125 77.09375 44.375 
Q 74.3125 48.1875 68.609375 48.1875 
Q 61.625 48.1875 57.5625 43.546875 
Q 53.515625 38.921875 53.515625 30.90625 
L 53.515625 0 
L 44.484375 0 
L 44.484375 32.71875 
Q 44.484375 40.625 41.703125 44.40625 
Q 38.921875 48.1875 33.109375 48.1875 
Q 26.21875 48.1875 22.15625 43.53125 
Q 18.109375 38.875 18.109375 30.90625 
L 18.109375 0 
L 9.078125 0 
L 9.078125 54.6875 
L 18.109375 54.6875 
L 18.109375 46.1875 
Q 21.1875 51.21875 25.484375 53.609375 
Q 29.78125 56 35.6875 56 
Q 41.65625 56 45.828125 52.96875 
Q 50 49.953125 52 44.1875 
z
" id="DejaVuSans-109"/>
     <path d="M 54.890625 54.6875 
L 35.109375 28.078125 
L 55.90625 0 
L 45.3125 0 
L 29.390625 21.484375 
L 13.484375 0 
L 2.875 0 
L 24.125 28.609375 
L 4.6875 54.6875 
L 15.28125 54.6875 
L 29.78125 35.203125 
L 44.28125 54.6875 
z
" id="DejaVuSans-120"/>
     <path d="M 50.984375 -16.609375 
L 50.984375 -23.578125 
L -0.984375 -23.578125 
L -0.984375 -16.609375 
z
" id="DejaVuSans-95"/>
     <path d="M 10.59375 45.40625 
L 73.1875 45.40625 
L 73.1875 37.203125 
L 10.59375 37.203125 
z
M 10.59375 25.484375 
L 73.1875 25.484375 
L 73.1875 17.1875 
L 10.59375 17.1875 
z
" id="DejaVuSans-61"/>
     <path d="M 8.203125 72.90625 
L 55.078125 72.90625 
L 55.078125 68.703125 
L 28.609375 0 
L 18.3125 0 
L 43.21875 64.59375 
L 8.203125 64.59375 
z
" id="DejaVuSans-55"/>
     <path d="M 11.71875 12.40625 
L 22.015625 12.40625 
L 22.015625 4 
L 14.015625 -11.625 
L 7.71875 -11.625 
L 11.71875 4 
z
" id="DejaVuSans-44"/>
    </defs>
    <g transform="translate(970.80375 80.4)scale(0.12 -0.12)">
     <use xlink:href="#DejaVuSans-109"/>
     <use x="97.412109" xlink:href="#DejaVuSans-97"/>
     <use x="158.691406" xlink:href="#DejaVuSans-120"/>
     <use x="217.871094" xlink:href="#DejaVuSans-95"/>
     <use x="267.871094" xlink:href="#DejaVuSans-101"/>
     <use x="327.644531" xlink:href="#DejaVuSans-120"/>
     <use x="386.824219" xlink:href="#DejaVuSans-116"/>
     <use x="426.033203" xlink:href="#DejaVuSans-114"/>
     <use x="464.896484" xlink:href="#DejaVuSans-101"/>
     <use x="526.419922" xlink:href="#DejaVuSans-109"/>
     <use x="623.832031" xlink:href="#DejaVuSans-101"/>
     <use x="685.355469" xlink:href="#DejaVuSans-49"/>
     <use x="748.978516" xlink:href="#DejaVuSans-61"/>
     <use x="832.767578" xlink:href="#DejaVuSans-48"/>
     <use x="896.390625" xlink:href="#DejaVuSans-46"/>
     <use x="928.177734" xlink:href="#DejaVuSans-49"/>
     <use x="991.800781" xlink:href="#DejaVuSans-48"/>
     <use x="1055.423828" xlink:href="#DejaVuSans-55"/>
     <use x="1119.046875" xlink:href="#DejaVuSans-44"/>
     <use x="1150.833984" xlink:href="#DejaVuSans-109"/>
     <use x="1248.246094" xlink:href="#DejaVuSans-97"/>
     <use x="1309.525391" xlink:href="#DejaVuSans-120"/>
     <use x="1368.705078" xlink:href="#DejaVuSans-95"/>
     <use x="1418.705078" xlink:href="#DejaVuSans-101"/>
     <use x="1478.478516" xlink:href="#DejaVuSans-120"/>
     <use x="1537.658203" xlink:href="#DejaVuSans-116"/>
     <use x="1576.867188" xlink:href="#DejaVuSans-114"/>
     <use x="1615.730469" xlink:href="#DejaVuSans-101"/>
     <use x="1677.253906" xlink:href="#DejaVuSans-109"/>
     <use x="1774.666016" xlink:href="#DejaVuSans-101"/>
     <use x="1836.189453" xlink:href="#DejaVuSans-50"/>
     <use x="1899.8125" xlink:href="#DejaVuSans-61"/>
     <use x="1983.601562" xlink:href="#DejaVuSans-48"/>
     <use x="2047.224609" xlink:href="#DejaVuSans-46"/>
     <use x="2079.011719" xlink:href="#DejaVuSans-49"/>
     <use x="2142.634766" xlink:href="#DejaVuSans-52"/>
     <use x="2206.257812" xlink:href="#DejaVuSans-55"/>
    </g>
   </g>
  </g>
 </g>
 <defs>
  <clipPath id="pcd7c2ee443">
   <rect height="543.6" width="1674" x="270" y="86.4"/>
  </clipPath>
 </defs>
</svg>
